<svg width="1000" height="1330" viewBox="0 0 1000 1330" fill="none" xmlns="http://www.w3.org/2000/svg">
<g clip-path="url(#clip0_1_82)">
<rect width="1007" height="610" fill="#F5F6F7"/>
<rect width="1007" height="610" fill="url(#paint0_radial_1_82)"/>
<rect width="1007" height="610" fill="url(#paint1_radial_1_82)" fill-opacity="0.2"/>
<rect x="206" y="711" width="597" height="482" fill="#F5F6F7"/>
<rect x="206" y="711" width="597" height="482" fill="url(#paint2_radial_1_82)"/>
<rect x="206" y="711" width="597" height="482" fill="url(#paint3_radial_1_82)" fill-opacity="0.6"/>
<path d="M195.249 115.681C195.612 116.362 195.943 117.075 196.242 117.82C196.563 118.544 196.873 119.279 197.172 120.024C197.471 119.257 197.78 118.502 198.101 117.757C198.422 117.011 198.763 116.298 199.126 115.617L212.843 90.0383C213.014 89.719 213.185 89.4635 213.356 89.2719C213.549 89.0803 213.751 88.9419 213.965 88.8568C214.2 88.7716 214.456 88.7184 214.734 88.6971C215.012 88.6758 215.343 88.6651 215.727 88.6651H222.233V134.841H214.638V105.015C214.638 104.462 214.649 103.855 214.67 103.195C214.713 102.535 214.766 101.864 214.83 101.183L200.825 127.369C200.505 127.965 200.089 128.433 199.575 128.774C199.062 129.093 198.464 129.253 197.78 129.253H196.595C195.911 129.253 195.313 129.093 194.8 128.774C194.287 128.433 193.871 127.965 193.55 127.369L179.353 101.087C179.439 101.79 179.492 102.482 179.513 103.163C179.556 103.823 179.577 104.44 179.577 105.015V134.841H171.982V88.6651H178.487C178.872 88.6651 179.204 88.6758 179.481 88.6971C179.759 88.7184 180.004 88.7716 180.218 88.8568C180.453 88.9419 180.667 89.0803 180.859 89.2719C181.051 89.4635 181.233 89.719 181.404 90.0383L195.249 115.681Z" fill="#20252B"/>
<path d="M244.711 101.566C246.784 101.566 248.685 101.896 250.416 102.556C252.168 103.216 253.674 104.185 254.935 105.462C256.195 106.718 257.178 108.272 257.883 110.124C258.588 111.955 258.941 114.052 258.941 116.415C258.941 117.011 258.909 117.512 258.844 117.916C258.802 118.299 258.705 118.608 258.556 118.842C258.428 119.055 258.246 119.215 258.012 119.321C257.777 119.406 257.477 119.449 257.114 119.449H236.795C237.03 122.813 237.938 125.282 239.52 126.858C241.101 128.433 243.195 129.221 245.801 129.221C247.083 129.221 248.183 129.072 249.102 128.774C250.042 128.475 250.854 128.146 251.537 127.784C252.243 127.422 252.852 127.092 253.365 126.794C253.899 126.496 254.411 126.347 254.902 126.347C255.223 126.347 255.501 126.411 255.736 126.538C255.971 126.666 256.174 126.847 256.345 127.081L258.652 129.955C257.777 130.977 256.794 131.839 255.703 132.542C254.614 133.223 253.471 133.776 252.274 134.202C251.1 134.607 249.892 134.894 248.653 135.064C247.435 135.235 246.25 135.32 245.096 135.32C242.81 135.32 240.684 134.947 238.719 134.202C236.753 133.436 235.044 132.318 233.59 130.849C232.138 129.359 230.995 127.528 230.161 125.357C229.328 123.164 228.912 120.631 228.912 117.757C228.912 115.521 229.275 113.424 230.001 111.466C230.727 109.486 231.764 107.772 233.11 106.324C234.477 104.855 236.133 103.695 238.077 102.844C240.043 101.992 242.254 101.566 244.711 101.566ZM244.871 107.218C242.564 107.218 240.758 107.868 239.456 109.166C238.152 110.465 237.319 112.307 236.956 114.691H251.826C251.826 113.669 251.687 112.711 251.409 111.817C251.132 110.901 250.704 110.103 250.127 109.422C249.551 108.741 248.824 108.208 247.948 107.825C247.072 107.421 246.047 107.218 244.871 107.218Z" fill="#20252B"/>
<path d="M265.362 134.841V102.077H270.201C271.227 102.077 271.9 102.556 272.22 103.514L272.733 105.941C273.31 105.302 273.908 104.717 274.528 104.185C275.168 103.653 275.842 103.195 276.547 102.812C277.273 102.428 278.043 102.13 278.854 101.918C279.688 101.683 280.595 101.566 281.578 101.566C283.651 101.566 285.349 102.13 286.674 103.259C288.02 104.366 289.024 105.845 289.686 107.697C290.199 106.612 290.84 105.686 291.609 104.919C292.378 104.132 293.223 103.493 294.141 103.003C295.06 102.514 296.032 102.152 297.057 101.918C298.104 101.683 299.151 101.566 300.198 101.566C302.014 101.566 303.627 101.843 305.038 102.397C306.448 102.95 307.633 103.759 308.595 104.824C309.556 105.888 310.282 107.187 310.774 108.719C311.287 110.252 311.544 112.008 311.544 113.988V134.841H303.627V113.988C303.627 111.902 303.168 110.337 302.249 109.294C301.33 108.23 299.984 107.697 298.211 107.697C297.399 107.697 296.641 107.836 295.935 108.113C295.252 108.389 294.643 108.794 294.109 109.326C293.597 109.837 293.19 110.486 292.891 111.274C292.592 112.062 292.442 112.967 292.442 113.988V134.841H284.494V113.988C284.494 111.796 284.046 110.199 283.148 109.198C282.273 108.198 280.969 107.697 279.239 107.697C278.107 107.697 277.038 107.985 276.033 108.56C275.051 109.113 274.132 109.88 273.277 110.859V134.841H265.362Z" fill="#20252B"/>
<path d="M319.414 134.841V87.3878H327.33V106.101C328.633 104.717 330.108 103.621 331.753 102.812C333.398 101.981 335.321 101.566 337.522 101.566C339.316 101.566 340.951 101.939 342.425 102.684C343.92 103.408 345.202 104.472 346.271 105.877C347.36 107.282 348.193 109.017 348.77 111.082C349.368 113.148 349.667 115.521 349.667 118.204C349.667 120.652 349.337 122.919 348.674 125.005C348.011 127.092 347.061 128.901 345.822 130.434C344.604 131.967 343.119 133.17 341.367 134.043C339.636 134.894 337.692 135.32 335.534 135.32C334.53 135.32 333.611 135.213 332.778 135.001C331.945 134.809 331.186 134.532 330.502 134.17C329.819 133.808 329.178 133.372 328.58 132.861C328.003 132.329 327.447 131.743 326.913 131.105L326.561 133.308C326.433 133.862 326.208 134.255 325.888 134.49C325.588 134.724 325.172 134.841 324.638 134.841H319.414ZM334.797 107.697C333.152 107.697 331.742 108.049 330.567 108.751C329.413 109.433 328.334 110.401 327.33 111.657V126.347C328.227 127.454 329.199 128.231 330.246 128.678C331.315 129.104 332.468 129.316 333.708 129.316C334.904 129.316 335.983 129.093 336.944 128.646C337.905 128.199 338.718 127.518 339.38 126.602C340.064 125.687 340.588 124.537 340.951 123.153C341.314 121.748 341.495 120.098 341.495 118.204C341.495 116.288 341.335 114.67 341.015 113.35C340.715 112.008 340.278 110.923 339.7 110.093C339.123 109.262 338.419 108.655 337.586 108.272C336.774 107.889 335.844 107.697 334.797 107.697Z" fill="#20252B"/>
<path d="M369.461 101.566C371.533 101.566 373.435 101.896 375.166 102.556C376.918 103.216 378.424 104.185 379.684 105.462C380.945 106.718 381.928 108.272 382.633 110.124C383.338 111.955 383.691 114.052 383.691 116.415C383.691 117.011 383.658 117.512 383.594 117.916C383.552 118.299 383.456 118.608 383.306 118.842C383.178 119.055 382.996 119.215 382.761 119.321C382.526 119.406 382.227 119.449 381.864 119.449H361.545C361.781 122.813 362.689 125.282 364.269 126.858C365.85 128.433 367.944 129.221 370.551 129.221C371.833 129.221 372.934 129.072 373.852 128.774C374.792 128.475 375.604 128.146 376.288 127.784C376.992 127.422 377.601 127.092 378.114 126.794C378.648 126.496 379.161 126.347 379.653 126.347C379.973 126.347 380.251 126.411 380.486 126.538C380.72 126.666 380.924 126.847 381.094 127.081L383.403 129.955C382.526 130.977 381.543 131.839 380.454 132.542C379.365 133.223 378.221 133.776 377.025 134.202C375.85 134.607 374.643 134.894 373.403 135.064C372.186 135.235 370.999 135.32 369.846 135.32C367.559 135.32 365.434 134.947 363.468 134.202C361.502 133.436 359.793 132.318 358.341 130.849C356.888 129.359 355.744 127.528 354.912 125.357C354.078 123.164 353.661 120.631 353.661 117.757C353.661 115.521 354.024 113.424 354.751 111.466C355.478 109.486 356.514 107.772 357.86 106.324C359.227 104.855 360.883 103.695 362.828 102.844C364.793 101.992 367.004 101.566 369.461 101.566ZM369.622 107.218C367.314 107.218 365.509 107.868 364.205 109.166C362.902 110.465 362.069 112.307 361.706 114.691H376.576C376.576 113.669 376.437 112.711 376.159 111.817C375.881 110.901 375.454 110.103 374.878 109.422C374.3 108.741 373.574 108.208 372.698 107.825C371.822 107.421 370.796 107.218 369.622 107.218Z" fill="#20252B"/>
<path d="M390.112 134.841V102.077H394.759C395.571 102.077 396.137 102.226 396.457 102.524C396.778 102.822 396.992 103.333 397.098 104.057L397.579 108.017C398.754 105.994 400.132 104.398 401.714 103.227C403.294 102.056 405.068 101.471 407.033 101.471C408.657 101.471 410.003 101.843 411.071 102.588L410.046 108.496C409.982 108.879 409.843 109.156 409.629 109.326C409.416 109.475 409.127 109.55 408.764 109.55C408.444 109.55 408.005 109.475 407.45 109.326C406.894 109.177 406.157 109.103 405.238 109.103C403.593 109.103 402.183 109.56 401.008 110.476C399.833 111.37 398.84 112.69 398.028 114.435V134.841H390.112Z" fill="#20252B"/>
<path d="M416.372 134.841V87.3878H424.288V106.101C425.591 104.717 427.065 103.621 428.711 102.812C430.356 101.981 432.278 101.566 434.479 101.566C436.274 101.566 437.908 101.939 439.382 102.684C440.878 103.408 442.16 104.472 443.229 105.877C444.318 107.282 445.151 109.017 445.729 111.082C446.327 113.148 446.626 115.521 446.626 118.204C446.626 120.652 446.294 122.919 445.632 125.005C444.97 127.092 444.019 128.901 442.78 130.434C441.562 131.967 440.077 133.17 438.326 134.043C436.595 134.894 434.651 135.32 432.493 135.32C431.488 135.32 430.569 135.213 429.736 135.001C428.903 134.809 428.145 134.532 427.461 134.17C426.777 133.808 426.137 133.372 425.538 132.861C424.961 132.329 424.406 131.743 423.872 131.105L423.519 133.308C423.39 133.862 423.166 134.255 422.846 134.49C422.547 134.724 422.13 134.841 421.596 134.841H416.372ZM431.755 107.697C430.11 107.697 428.7 108.049 427.525 108.751C426.371 109.433 425.292 110.401 424.288 111.657V126.347C425.185 127.454 426.157 128.231 427.204 128.678C428.273 129.104 429.427 129.316 430.666 129.316C431.862 129.316 432.941 129.093 433.903 128.646C434.864 128.199 435.676 127.518 436.338 126.602C437.022 125.687 437.545 124.537 437.908 123.153C438.272 121.748 438.453 120.098 438.453 118.204C438.453 116.288 438.293 114.67 437.972 113.35C437.673 112.008 437.235 110.923 436.659 110.093C436.082 109.262 435.377 108.655 434.543 108.272C433.732 107.889 432.802 107.697 431.755 107.697Z" fill="#20252B"/>
<path d="M478.598 134.841H475.04C474.292 134.841 473.705 134.734 473.278 134.522C472.85 134.287 472.53 133.83 472.317 133.148L471.611 130.817C470.778 131.562 469.955 132.222 469.144 132.797C468.353 133.351 467.531 133.819 466.676 134.202C465.821 134.585 464.914 134.873 463.951 135.064C462.99 135.256 461.922 135.352 460.747 135.352C459.358 135.352 458.076 135.171 456.901 134.809C455.726 134.426 454.711 133.862 453.856 133.117C453.024 132.371 452.371 131.445 451.902 130.338C451.432 129.231 451.197 127.943 451.197 126.474C451.197 125.24 451.517 124.026 452.158 122.834C452.82 121.62 453.91 120.535 455.427 119.577C456.944 118.597 458.963 117.788 461.484 117.15C464.005 116.511 467.135 116.149 470.874 116.064V114.148C470.874 111.955 470.404 110.337 469.464 109.294C468.545 108.23 467.199 107.698 465.426 107.698C464.144 107.698 463.076 107.847 462.222 108.145C461.367 108.443 460.619 108.783 459.978 109.166C459.358 109.528 458.782 109.858 458.247 110.156C457.713 110.454 457.126 110.603 456.484 110.603C455.95 110.603 455.491 110.465 455.107 110.188C454.722 109.912 454.412 109.571 454.177 109.166L452.734 106.644C456.517 103.195 461.078 101.471 466.419 101.471C468.343 101.471 470.052 101.79 471.547 102.428C473.064 103.046 474.346 103.919 475.393 105.047C476.439 106.154 477.23 107.485 477.765 109.039C478.32 110.593 478.598 112.296 478.598 114.148V134.841ZM463.214 129.923C464.026 129.923 464.774 129.849 465.458 129.7C466.142 129.551 466.783 129.327 467.381 129.029C468 128.731 468.588 128.369 469.144 127.943C469.72 127.496 470.298 126.975 470.874 126.379V120.854C468.567 120.961 466.633 121.163 465.073 121.461C463.535 121.738 462.296 122.099 461.356 122.547C460.416 122.994 459.743 123.515 459.337 124.111C458.952 124.707 458.76 125.357 458.76 126.059C458.76 127.443 459.165 128.433 459.978 129.029C460.811 129.625 461.89 129.923 463.214 129.923Z" fill="#20252B"/>
<path d="M505.899 108.464C505.685 108.804 505.461 109.049 505.226 109.198C504.991 109.326 504.692 109.39 504.328 109.39C503.944 109.39 503.527 109.284 503.079 109.071C502.651 108.858 502.149 108.624 501.572 108.368C500.996 108.091 500.333 107.847 499.585 107.634C498.859 107.421 497.994 107.314 496.989 107.314C495.43 107.314 494.201 107.644 493.303 108.304C492.406 108.964 491.957 109.826 491.957 110.891C491.957 111.593 492.182 112.189 492.63 112.679C493.101 113.148 493.71 113.563 494.458 113.924C495.227 114.286 496.092 114.616 497.053 114.914C498.015 115.191 498.997 115.5 500.002 115.841C501.006 116.181 501.989 116.575 502.95 117.022C503.912 117.448 504.766 118.001 505.514 118.683C506.283 119.343 506.893 120.141 507.341 121.078C507.811 122.014 508.046 123.143 508.046 124.463C508.046 126.038 507.757 127.496 507.181 128.837C506.604 130.157 505.76 131.307 504.649 132.286C503.538 133.244 502.16 134 500.515 134.554C498.891 135.086 497.022 135.352 494.906 135.352C493.774 135.352 492.663 135.245 491.574 135.032C490.505 134.841 489.469 134.564 488.464 134.202C487.482 133.84 486.563 133.415 485.708 132.925C484.875 132.435 484.138 131.903 483.497 131.328L485.324 128.326C485.559 127.965 485.836 127.688 486.157 127.496C486.478 127.305 486.883 127.209 487.375 127.209C487.866 127.209 488.326 127.347 488.753 127.624C489.201 127.901 489.714 128.199 490.292 128.518C490.868 128.837 491.541 129.135 492.311 129.412C493.101 129.689 494.094 129.827 495.291 129.827C496.231 129.827 497.033 129.721 497.695 129.508C498.379 129.274 498.934 128.976 499.361 128.614C499.809 128.252 500.13 127.837 500.323 127.368C500.536 126.879 500.643 126.379 500.643 125.868C500.643 125.101 500.407 124.473 499.938 123.984C499.489 123.494 498.88 123.068 498.111 122.706C497.363 122.344 496.498 122.025 495.515 121.748C494.554 121.45 493.56 121.131 492.535 120.79C491.53 120.45 490.537 120.056 489.555 119.609C488.592 119.14 487.727 118.555 486.958 117.852C486.21 117.15 485.601 116.288 485.132 115.266C484.683 114.244 484.459 113.009 484.459 111.561C484.459 110.22 484.725 108.943 485.26 107.729C485.794 106.516 486.573 105.462 487.6 104.568C488.646 103.653 489.938 102.929 491.477 102.397C493.037 101.843 494.831 101.566 496.861 101.566C499.126 101.566 501.188 101.939 503.046 102.684C504.905 103.429 506.455 104.408 507.693 105.622L505.899 108.464Z" fill="#20252B"/>
<path d="M527.95 101.566C530.022 101.566 531.924 101.896 533.654 102.556C535.406 103.216 536.912 104.185 538.173 105.462C539.433 106.718 540.416 108.272 541.122 110.124C541.826 111.955 542.179 114.052 542.179 116.415C542.179 117.011 542.147 117.512 542.083 117.916C542.04 118.299 541.944 118.608 541.795 118.842C541.666 119.055 541.485 119.215 541.249 119.321C541.014 119.406 540.715 119.449 540.352 119.449H520.034C520.269 122.813 521.176 125.282 522.757 126.858C524.339 128.433 526.432 129.221 529.039 129.221C530.321 129.221 531.421 129.072 532.34 128.774C533.281 128.475 534.092 128.146 534.776 127.784C535.481 127.422 536.09 127.092 536.602 126.794C537.137 126.496 537.649 126.347 538.141 126.347C538.461 126.347 538.739 126.411 538.974 126.538C539.209 126.666 539.412 126.847 539.583 127.081L541.89 129.955C541.014 130.977 540.031 131.839 538.942 132.542C537.852 133.223 536.71 133.776 535.513 134.202C534.337 134.607 533.131 134.894 531.891 135.064C530.673 135.235 529.488 135.32 528.334 135.32C526.048 135.32 523.922 134.947 521.956 134.202C519.991 133.436 518.281 132.318 516.829 130.849C515.376 129.359 514.233 127.528 513.399 125.357C512.567 123.164 512.15 120.631 512.15 117.757C512.15 115.521 512.513 113.424 513.24 111.466C513.966 109.486 515.002 107.772 516.348 106.324C517.716 104.855 519.372 103.695 521.316 102.844C523.281 101.992 525.493 101.566 527.95 101.566ZM528.11 107.218C525.803 107.218 523.997 107.868 522.693 109.166C521.391 110.465 520.557 112.307 520.194 114.691H535.064C535.064 113.669 534.926 112.711 534.647 111.817C534.37 110.901 533.943 110.103 533.365 109.422C532.789 108.741 532.062 108.208 531.187 107.825C530.31 107.421 529.285 107.218 528.11 107.218Z" fill="#20252B"/>
<path d="M95.0265 106.172L70 133.538L138.699 150.037C143.199 151.118 146.891 146.431 144.77 142.332L131.565 116.814L144.178 79.2108L86.7318 72.3275C82.406 71.8092 79.2737 76.3416 81.3025 80.1836L95.0265 106.172Z" fill="#20252B"/>
<path d="M72.3577 384V319.542H96.5295C101.481 319.542 105.636 320.402 108.993 322.123C112.371 323.843 114.921 326.256 116.641 329.362C118.383 332.446 119.254 336.044 119.254 340.157C119.254 344.291 118.372 347.879 116.61 350.921C114.868 353.943 112.298 356.282 108.899 357.94C105.5 359.576 101.324 360.395 96.3722 360.395H79.156V350.701H94.7985C97.6941 350.701 100.065 350.302 101.912 349.505C103.758 348.686 105.122 347.501 106.003 345.948C106.905 344.375 107.357 342.444 107.357 340.157C107.357 337.87 106.905 335.919 106.003 334.303C105.101 332.666 103.727 331.428 101.88 330.589C100.034 329.729 97.6521 329.299 94.7355 329.299H84.0345V384H72.3577ZM105.657 354.792L121.614 384H108.584L92.9101 354.792H105.657ZM150.208 384.944C145.361 384.944 141.175 383.937 137.65 381.923C134.146 379.887 131.45 377.013 129.561 373.299C127.673 369.564 126.729 365.168 126.729 360.111C126.729 355.139 127.673 350.774 129.561 347.018C131.471 343.241 134.135 340.304 137.556 338.206C140.976 336.086 144.994 335.027 149.61 335.027C152.59 335.027 155.401 335.509 158.045 336.475C160.71 337.419 163.06 338.888 165.095 340.881C167.151 342.874 168.767 345.413 169.942 348.498C171.117 351.561 171.705 355.212 171.705 359.45V362.944H132.079V355.264H160.783C160.762 353.082 160.29 351.141 159.367 349.442C158.444 347.721 157.153 346.368 155.496 345.382C153.859 344.396 151.95 343.902 149.767 343.902C147.438 343.902 145.393 344.469 143.63 345.602C141.867 346.714 140.493 348.183 139.507 350.008C138.542 351.813 138.049 353.796 138.028 355.957V362.661C138.028 365.472 138.542 367.885 139.57 369.9C140.598 371.893 142.035 373.425 143.882 374.495C145.728 375.544 147.889 376.069 150.365 376.069C152.023 376.069 153.523 375.838 154.866 375.376C156.209 374.894 157.374 374.191 158.36 373.267C159.346 372.344 160.091 371.201 160.594 369.837L171.232 371.033C170.561 373.844 169.281 376.299 167.393 378.398C165.525 380.475 163.133 382.091 160.217 383.245C157.3 384.378 153.964 384.944 150.208 384.944ZM181.343 384V335.656H192.233V343.871H192.8C193.807 341.101 195.475 338.94 197.804 337.387C200.133 335.814 202.913 335.027 206.145 335.027C209.418 335.027 212.177 335.824 214.422 337.419C216.688 338.993 218.283 341.143 219.206 343.871H219.71C220.78 341.185 222.585 339.045 225.123 337.45C227.683 335.835 230.715 335.027 234.219 335.027C238.668 335.027 242.298 336.433 245.109 339.244C247.921 342.056 249.327 346.158 249.327 351.551V384H237.902V353.313C237.902 350.313 237.104 348.12 235.51 346.735C233.915 345.329 231.964 344.626 229.656 344.626C226.907 344.626 224.756 345.487 223.204 347.207C221.672 348.907 220.906 351.12 220.906 353.848V384H209.733V352.841C209.733 350.344 208.977 348.351 207.467 346.861C205.977 345.371 204.026 344.626 201.613 344.626C199.976 344.626 198.486 345.046 197.143 345.885C195.8 346.704 194.73 347.868 193.933 349.379C193.136 350.869 192.737 352.61 192.737 354.604V384H181.343ZM281.973 384.944C277.252 384.944 273.16 383.906 269.698 381.828C266.236 379.751 263.55 376.845 261.641 373.11C259.752 369.375 258.808 365.011 258.808 360.017C258.808 355.023 259.752 350.648 261.641 346.892C263.55 343.137 266.236 340.22 269.698 338.143C273.16 336.065 277.252 335.027 281.973 335.027C286.694 335.027 290.786 336.065 294.248 338.143C297.71 340.22 300.385 343.137 302.273 346.892C304.183 350.648 305.138 355.023 305.138 360.017C305.138 365.011 304.183 369.375 302.273 373.11C300.385 376.845 297.71 379.751 294.248 381.828C290.786 383.906 286.694 384.944 281.973 384.944ZM282.036 375.817C284.596 375.817 286.736 375.114 288.456 373.708C290.177 372.281 291.457 370.372 292.296 367.98C293.157 365.588 293.587 362.923 293.587 359.986C293.587 357.027 293.157 354.352 292.296 351.96C291.457 349.547 290.177 347.627 288.456 346.2C286.736 344.773 284.596 344.06 282.036 344.06C279.413 344.06 277.231 344.773 275.489 346.2C273.769 347.627 272.478 349.547 271.618 351.96C270.779 354.352 270.359 357.027 270.359 359.986C270.359 362.923 270.779 365.588 271.618 367.98C272.478 370.372 273.769 372.281 275.489 373.708C277.231 375.114 279.413 375.817 282.036 375.817ZM338.948 335.656V344.469H311.157V335.656H338.948ZM318.018 324.074H329.412V369.459C329.412 370.991 329.643 372.166 330.104 372.984C330.587 373.782 331.216 374.327 331.993 374.621C332.769 374.915 333.629 375.061 334.573 375.061C335.287 375.061 335.937 375.009 336.525 374.904C337.133 374.799 337.595 374.705 337.91 374.621L339.83 383.528C339.221 383.738 338.35 383.969 337.217 384.22C336.105 384.472 334.741 384.619 333.126 384.661C330.272 384.745 327.702 384.315 325.415 383.371C323.127 382.405 321.312 380.916 319.97 378.901C318.648 376.887 317.997 374.369 318.018 371.348V324.074ZM369.36 384.944C364.513 384.944 360.327 383.937 356.802 381.923C353.298 379.887 350.601 377.013 348.713 373.299C346.825 369.564 345.88 365.168 345.88 360.111C345.88 355.139 346.825 350.774 348.713 347.018C350.622 343.241 353.287 340.304 356.707 338.206C360.127 336.086 364.146 335.027 368.762 335.027C371.741 335.027 374.553 335.509 377.197 336.475C379.862 337.419 382.212 338.888 384.247 340.881C386.303 342.874 387.919 345.413 389.094 348.498C390.269 351.561 390.856 355.212 390.856 359.45V362.944H351.231V355.264H379.935C379.914 353.082 379.442 351.141 378.519 349.442C377.595 347.721 376.305 346.368 374.647 345.382C373.011 344.396 371.101 343.902 368.919 343.902C366.59 343.902 364.544 344.469 362.782 345.602C361.019 346.714 359.645 348.183 358.659 350.008C357.694 351.813 357.2 353.796 357.179 355.957V362.661C357.179 365.472 357.694 367.885 358.722 369.9C359.75 371.893 361.187 373.425 363.034 374.495C364.88 375.544 367.041 376.069 369.517 376.069C371.175 376.069 372.675 375.838 374.018 375.376C375.361 374.894 376.525 374.191 377.511 373.267C378.498 372.344 379.243 371.201 379.746 369.837L390.384 371.033C389.713 373.844 388.433 376.299 386.544 378.398C384.677 380.475 382.285 382.091 379.368 383.245C376.452 384.378 373.116 384.944 369.36 384.944ZM436.548 384L418.357 319.542H430.915L442.528 366.91H443.126L455.527 319.542H466.952L479.384 366.941H479.951L491.564 319.542H504.123L485.931 384H474.411L461.507 338.772H461.003L448.068 384H436.548ZM527.869 384.944C523.148 384.944 519.057 383.906 515.595 381.828C512.133 379.751 509.447 376.845 507.537 373.11C505.649 369.375 504.705 365.011 504.705 360.017C504.705 355.023 505.649 350.648 507.537 346.892C509.447 343.137 512.133 340.22 515.595 338.143C519.057 336.065 523.148 335.027 527.869 335.027C532.591 335.027 536.682 336.065 540.144 338.143C543.606 340.22 546.282 343.137 548.17 346.892C550.079 350.648 551.034 355.023 551.034 360.017C551.034 365.011 550.079 369.375 548.17 373.11C546.282 376.845 543.606 379.751 540.144 381.828C536.682 383.906 532.591 384.944 527.869 384.944ZM527.932 375.817C530.492 375.817 532.632 375.114 534.353 373.708C536.074 372.281 537.354 370.372 538.193 367.98C539.053 365.588 539.483 362.923 539.483 359.986C539.483 357.027 539.053 354.352 538.193 351.96C537.354 349.547 536.074 347.627 534.353 346.2C532.632 344.773 530.492 344.06 527.932 344.06C525.31 344.06 523.127 344.773 521.386 346.2C519.665 347.627 518.375 349.547 517.515 351.96C516.675 354.352 516.256 357.027 516.256 359.986C516.256 362.923 516.675 365.588 517.515 367.98C518.375 370.372 519.665 372.281 521.386 373.708C523.127 375.114 525.31 375.817 527.932 375.817ZM560.704 384V335.656H571.752V343.714H572.255C573.137 340.923 574.647 338.772 576.788 337.261C578.949 335.73 581.414 334.964 584.184 334.964C584.813 334.964 585.516 334.995 586.293 335.058C587.09 335.1 587.751 335.174 588.275 335.279V345.759C587.793 345.592 587.027 345.445 585.978 345.319C584.95 345.172 583.953 345.098 582.988 345.098C580.911 345.098 579.043 345.55 577.386 346.452C575.749 347.333 574.458 348.561 573.514 350.134C572.57 351.708 572.098 353.523 572.098 355.579V384H560.704ZM606.231 368.83L606.2 355.076H608.025L625.399 335.656H638.712L617.341 359.45H614.981L606.231 368.83ZM595.845 384V319.542H607.238V384H595.845ZM626.186 384L610.449 362L618.128 353.974L639.814 384H626.186ZM692.776 335.656V344.469H664.198V335.656H692.776ZM671.343 384V331.093C671.343 327.84 672.014 325.134 673.357 322.972C674.721 320.811 676.546 319.196 678.833 318.125C681.12 317.055 683.659 316.52 686.45 316.52C688.422 316.52 690.174 316.678 691.706 316.992C693.238 317.307 694.371 317.59 695.105 317.842L692.839 326.655C692.357 326.508 691.748 326.361 691.014 326.214C690.279 326.046 689.461 325.962 688.559 325.962C686.439 325.962 684.939 326.476 684.058 327.505C683.198 328.512 682.768 329.96 682.768 331.848V384H671.343ZM720.969 384.944C716.248 384.944 712.156 383.906 708.694 381.828C705.232 379.751 702.546 376.845 700.637 373.11C698.748 369.375 697.804 365.011 697.804 360.017C697.804 355.023 698.748 350.648 700.637 346.892C702.546 343.137 705.232 340.22 708.694 338.143C712.156 336.065 716.248 335.027 720.969 335.027C725.69 335.027 729.781 336.065 733.244 338.143C736.706 340.22 739.381 343.137 741.269 346.892C743.179 350.648 744.134 355.023 744.134 360.017C744.134 365.011 743.179 369.375 741.269 373.11C739.381 376.845 736.706 379.751 733.244 381.828C729.781 383.906 725.69 384.944 720.969 384.944ZM721.032 375.817C723.592 375.817 725.732 375.114 727.452 373.708C729.173 372.281 730.453 370.372 731.292 367.98C732.152 365.588 732.583 362.923 732.583 359.986C732.583 357.027 732.152 354.352 731.292 351.96C730.453 349.547 729.173 347.627 727.452 346.2C725.732 344.773 723.592 344.06 721.032 344.06C718.409 344.06 716.227 344.773 714.485 346.2C712.765 347.627 711.474 349.547 710.614 351.96C709.775 354.352 709.355 357.027 709.355 359.986C709.355 362.923 709.775 365.588 710.614 367.98C711.474 370.372 712.765 372.281 714.485 373.708C716.227 375.114 718.409 375.817 721.032 375.817ZM753.804 384V335.656H764.851V343.714H765.355C766.236 340.923 767.747 338.772 769.887 337.261C772.048 335.73 774.514 334.964 777.283 334.964C777.913 334.964 778.616 334.995 779.392 335.058C780.189 335.1 780.85 335.174 781.375 335.279V345.759C780.892 345.592 780.126 345.445 779.077 345.319C778.049 345.172 777.052 345.098 776.087 345.098C774.01 345.098 772.143 345.55 770.485 346.452C768.848 347.333 767.558 348.561 766.614 350.134C765.669 351.708 765.197 353.523 765.197 355.579V384H753.804ZM94.2005 491H72.3577V426.542H94.6411C101.041 426.542 106.538 427.832 111.133 430.413C115.75 432.973 119.296 436.655 121.771 441.46C124.247 446.265 125.485 452.015 125.485 458.708C125.485 465.422 124.237 471.193 121.74 476.018C119.264 480.844 115.687 484.548 111.007 487.129C106.349 489.71 100.747 491 94.2005 491ZM84.0345 480.897H93.634C98.1242 480.897 101.87 480.079 104.87 478.442C107.871 476.784 110.126 474.319 111.637 471.046C113.148 467.751 113.903 463.639 113.903 458.708C113.903 453.777 113.148 449.685 111.637 446.433C110.126 443.16 107.892 440.715 104.933 439.1C101.995 437.463 98.3445 436.645 93.9802 436.645H84.0345V480.897ZM157.478 491.944C152.632 491.944 148.445 490.937 144.92 488.923C141.416 486.887 138.72 484.013 136.832 480.299C134.943 476.564 133.999 472.168 133.999 467.111C133.999 462.139 134.943 457.774 136.832 454.018C138.741 450.241 141.406 447.304 144.826 445.206C148.246 443.086 152.264 442.027 156.88 442.027C159.86 442.027 162.672 442.509 165.315 443.475C167.98 444.419 170.33 445.888 172.366 447.881C174.422 449.874 176.037 452.413 177.213 455.498C178.388 458.561 178.975 462.212 178.975 466.45V469.944H139.35V462.264H168.054C168.033 460.082 167.561 458.141 166.637 456.442C165.714 454.721 164.424 453.368 162.766 452.382C161.129 451.396 159.22 450.902 157.038 450.902C154.709 450.902 152.663 451.469 150.9 452.602C149.138 453.714 147.764 455.183 146.777 457.008C145.812 458.813 145.319 460.796 145.298 462.957V469.661C145.298 472.472 145.812 474.885 146.84 476.9C147.868 478.893 149.306 480.425 151.152 481.495C152.999 482.544 155.16 483.069 157.636 483.069C159.293 483.069 160.794 482.838 162.137 482.376C163.479 481.894 164.644 481.191 165.63 480.267C166.616 479.344 167.361 478.201 167.865 476.837L178.503 478.033C177.831 480.844 176.552 483.299 174.663 485.398C172.796 487.475 170.404 489.091 167.487 490.245C164.571 491.378 161.234 491.944 157.478 491.944ZM226.823 455.435L216.437 456.568C216.143 455.519 215.629 454.532 214.894 453.609C214.181 452.686 213.216 451.941 211.999 451.375C210.782 450.808 209.292 450.525 207.53 450.525C205.159 450.525 203.165 451.039 201.55 452.067C199.955 453.095 199.168 454.427 199.189 456.064C199.168 457.47 199.682 458.614 200.731 459.495C201.801 460.376 203.564 461.1 206.019 461.666L214.265 463.429C218.839 464.415 222.238 465.978 224.462 468.119C226.708 470.259 227.841 473.06 227.862 476.522C227.841 479.565 226.949 482.25 225.186 484.579C223.445 486.887 221.021 488.692 217.916 489.993C214.811 491.294 211.243 491.944 207.215 491.944C201.298 491.944 196.535 490.706 192.926 488.23C189.317 485.733 187.166 482.261 186.474 477.812L197.584 476.742C198.087 478.925 199.158 480.572 200.794 481.684C202.431 482.796 204.561 483.352 207.183 483.352C209.89 483.352 212.062 482.796 213.698 481.684C215.356 480.572 216.185 479.197 216.185 477.561C216.185 476.176 215.65 475.032 214.58 474.13C213.531 473.228 211.894 472.535 209.67 472.053L201.424 470.322C196.787 469.357 193.356 467.73 191.132 465.443C188.908 463.135 187.806 460.219 187.827 456.694C187.806 453.714 188.614 451.133 190.251 448.951C191.908 446.748 194.206 445.048 197.143 443.852C200.102 442.635 203.511 442.027 207.372 442.027C213.038 442.027 217.496 443.233 220.749 445.646C224.022 448.059 226.047 451.322 226.823 455.435ZM237.257 491V442.656H248.65V491H237.257ZM242.985 435.795C241.18 435.795 239.628 435.197 238.327 434.001C237.026 432.784 236.375 431.326 236.375 429.626C236.375 427.906 237.026 426.447 238.327 425.251C239.628 424.034 241.18 423.426 242.985 423.426C244.81 423.426 246.363 424.034 247.643 425.251C248.944 426.447 249.594 427.906 249.594 429.626C249.594 431.326 248.944 432.784 247.643 434.001C246.363 435.197 244.81 435.795 242.985 435.795ZM281.391 510.136C277.299 510.136 273.784 509.58 270.847 508.468C267.909 507.377 265.549 505.908 263.765 504.062C261.982 502.215 260.744 500.169 260.051 497.924L270.312 495.438C270.773 496.382 271.445 497.316 272.326 498.239C273.207 499.183 274.393 499.96 275.883 500.568C277.393 501.197 279.292 501.512 281.579 501.512C284.811 501.512 287.486 500.725 289.605 499.152C291.725 497.599 292.784 495.039 292.784 491.472V482.313H292.218C291.63 483.488 290.77 484.695 289.637 485.933C288.525 487.171 287.045 488.209 285.199 489.049C283.373 489.888 281.076 490.308 278.306 490.308C274.592 490.308 271.225 489.437 268.203 487.695C265.203 485.933 262.811 483.31 261.027 479.827C259.265 476.323 258.383 471.937 258.383 466.671C258.383 461.362 259.265 456.882 261.027 453.231C262.811 449.56 265.213 446.779 268.235 444.891C271.256 442.982 274.624 442.027 278.338 442.027C281.17 442.027 283.499 442.509 285.325 443.475C287.171 444.419 288.64 445.562 289.731 446.905C290.822 448.227 291.651 449.476 292.218 450.651H292.847V442.656H304.083V491.787C304.083 495.92 303.097 499.341 301.125 502.047C299.152 504.754 296.456 506.779 293.036 508.122C289.616 509.465 285.734 510.136 281.391 510.136ZM281.485 481.369C283.898 481.369 285.954 480.782 287.654 479.607C289.353 478.431 290.644 476.742 291.525 474.539C292.406 472.336 292.847 469.692 292.847 466.608C292.847 463.565 292.406 460.901 291.525 458.614C290.665 456.326 289.385 454.553 287.685 453.294C286.007 452.015 283.94 451.375 281.485 451.375C278.946 451.375 276.827 452.035 275.127 453.357C273.428 454.679 272.148 456.494 271.288 458.802C270.427 461.089 269.997 463.691 269.997 466.608C269.997 469.566 270.427 472.158 271.288 474.382C272.169 476.585 273.459 478.306 275.159 479.544C276.879 480.761 278.988 481.369 281.485 481.369ZM327.153 462.674V491H315.76V442.656H326.65V450.871H327.216C328.328 448.164 330.102 446.014 332.535 444.419C334.99 442.824 338.022 442.027 341.631 442.027C344.968 442.027 347.874 442.74 350.35 444.167C352.847 445.594 354.777 447.661 356.141 450.367C357.526 453.074 358.208 456.358 358.187 460.219V491H346.793V461.981C346.793 458.75 345.954 456.222 344.275 454.396C342.618 452.571 340.32 451.658 337.382 451.658C335.389 451.658 333.616 452.098 332.063 452.98C330.532 453.84 329.325 455.088 328.444 456.725C327.584 458.362 327.153 460.345 327.153 462.674ZM389.424 436.33V426.542H440.852V436.33H420.93V491H409.347V436.33H389.424ZM464.654 491.944C459.807 491.944 455.621 490.937 452.096 488.923C448.592 486.887 445.896 484.013 444.008 480.299C442.119 476.564 441.175 472.168 441.175 467.111C441.175 462.139 442.119 457.774 444.008 454.018C445.917 450.241 448.582 447.304 452.002 445.206C455.422 443.086 459.44 442.027 464.056 442.027C467.036 442.027 469.848 442.509 472.491 443.475C475.156 444.419 477.506 445.888 479.542 447.881C481.598 449.874 483.213 452.413 484.388 455.498C485.563 458.561 486.151 462.212 486.151 466.45V469.944H446.526V462.264H475.23C475.209 460.082 474.737 458.141 473.813 456.442C472.89 454.721 471.6 453.368 469.942 452.382C468.305 451.396 466.396 450.902 464.214 450.902C461.885 450.902 459.839 451.469 458.076 452.602C456.314 453.714 454.94 455.183 453.953 457.008C452.988 458.813 452.495 460.796 452.474 462.957V469.661C452.474 472.472 452.988 474.885 454.016 476.9C455.044 478.893 456.482 480.425 458.328 481.495C460.175 482.544 462.336 483.069 464.812 483.069C466.469 483.069 467.97 482.838 469.313 482.376C470.655 481.894 471.82 481.191 472.806 480.267C473.792 479.344 474.537 478.201 475.041 476.837L485.679 478.033C485.007 480.844 483.728 483.299 481.839 485.398C479.972 487.475 477.58 489.091 474.663 490.245C471.747 491.378 468.41 491.944 464.654 491.944ZM509.701 491.976C506.638 491.976 503.879 491.43 501.424 490.339C498.99 489.227 497.059 487.59 495.632 485.429C494.227 483.268 493.524 480.603 493.524 477.435C493.524 474.707 494.027 472.451 495.034 470.668C496.042 468.884 497.416 467.458 499.158 466.388C500.899 465.317 502.861 464.51 505.043 463.964C507.246 463.398 509.523 462.988 511.873 462.737C514.706 462.443 517.003 462.181 518.766 461.95C520.528 461.698 521.808 461.32 522.605 460.817C523.424 460.292 523.833 459.484 523.833 458.393V458.204C523.833 455.833 523.13 453.997 521.724 452.696C520.318 451.396 518.294 450.745 515.65 450.745C512.859 450.745 510.645 451.354 509.009 452.571C507.393 453.788 506.302 455.225 505.736 456.882L495.097 455.372C495.937 452.434 497.322 449.979 499.252 448.007C501.182 446.014 503.543 444.524 506.334 443.538C509.124 442.53 512.209 442.027 515.587 442.027C517.916 442.027 520.234 442.3 522.543 442.845C524.851 443.391 526.959 444.293 528.869 445.552C530.778 446.79 532.31 448.479 533.464 450.619C534.639 452.759 535.226 455.435 535.226 458.645V491H524.274V484.359H523.896C523.203 485.702 522.228 486.961 520.969 488.136C519.731 489.29 518.168 490.224 516.279 490.937C514.412 491.629 512.219 491.976 509.701 491.976ZM512.66 483.604C514.947 483.604 516.93 483.153 518.608 482.25C520.287 481.327 521.577 480.11 522.48 478.599C523.403 477.089 523.864 475.441 523.864 473.658V467.961C523.508 468.255 522.899 468.528 522.039 468.78C521.2 469.031 520.255 469.252 519.206 469.44C518.157 469.629 517.119 469.797 516.09 469.944C515.062 470.091 514.171 470.217 513.415 470.322C511.716 470.553 510.194 470.93 508.851 471.455C507.509 471.979 506.449 472.714 505.673 473.658C504.896 474.581 504.508 475.777 504.508 477.246C504.508 479.344 505.274 480.928 506.806 481.999C508.337 483.069 510.289 483.604 512.66 483.604ZM546.683 491V442.656H557.573V450.871H558.139C559.146 448.101 560.815 445.94 563.144 444.387C565.473 442.814 568.253 442.027 571.484 442.027C574.757 442.027 577.517 442.824 579.762 444.419C582.028 445.993 583.623 448.143 584.546 450.871H585.049C586.119 448.185 587.924 446.045 590.463 444.45C593.023 442.835 596.055 442.027 599.559 442.027C604.007 442.027 607.637 443.433 610.449 446.244C613.26 449.056 614.666 453.158 614.666 458.551V491H603.241V460.313C603.241 457.313 602.444 455.12 600.849 453.735C599.255 452.329 597.303 451.626 594.995 451.626C592.246 451.626 590.096 452.487 588.543 454.207C587.011 455.907 586.245 458.12 586.245 460.848V491H575.072V459.841C575.072 457.344 574.317 455.351 572.806 453.861C571.316 452.371 569.365 451.626 566.952 451.626C565.315 451.626 563.826 452.046 562.483 452.885C561.14 453.704 560.07 454.868 559.272 456.379C558.475 457.869 558.076 459.61 558.076 461.604V491H546.683ZM664.434 455.435L654.048 456.568C653.754 455.519 653.24 454.532 652.506 453.609C651.792 452.686 650.827 451.941 649.61 451.375C648.393 450.808 646.903 450.525 645.141 450.525C642.77 450.525 640.776 451.039 639.161 452.067C637.566 453.095 636.779 454.427 636.8 456.064C636.779 457.47 637.293 458.614 638.342 459.495C639.412 460.376 641.175 461.1 643.63 461.666L651.876 463.429C656.45 464.415 659.849 465.978 662.074 468.119C664.319 470.259 665.452 473.06 665.473 476.522C665.452 479.565 664.56 482.25 662.797 484.579C661.056 486.887 658.632 488.692 655.527 489.993C652.422 491.294 648.855 491.944 644.826 491.944C638.909 491.944 634.146 490.706 630.537 488.23C626.928 485.733 624.777 482.261 624.085 477.812L635.195 476.742C635.699 478.925 636.769 480.572 638.405 481.684C640.042 482.796 642.172 483.352 644.794 483.352C647.501 483.352 649.673 482.796 651.31 481.684C652.967 480.572 653.796 479.197 653.796 477.561C653.796 476.176 653.261 475.032 652.191 474.13C651.142 473.228 649.505 472.535 647.281 472.053L639.035 470.322C634.398 469.357 630.967 467.73 628.743 465.443C626.519 463.135 625.417 460.219 625.438 456.694C625.417 453.714 626.225 451.133 627.862 448.951C629.519 446.748 631.817 445.048 634.754 443.852C637.713 442.635 641.123 442.027 644.983 442.027C650.649 442.027 655.107 443.233 658.36 445.646C661.633 448.059 663.658 451.322 664.434 455.435Z" fill="black"/>
<path fill-rule="evenodd" clip-rule="evenodd" d="M0 574H1007V1330H0V574ZM477.962 754H251.038C242.022 754.037 233.386 757.645 227.011 764.036C220.636 770.428 217.037 779.086 217 788.125V947.375C217.037 956.414 220.636 965.072 227.011 971.464C233.386 977.855 242.022 981.463 251.038 981.5H353.154V1004.25H319.115C316.106 1004.25 313.22 1005.45 311.092 1007.58C308.965 1009.71 307.769 1012.61 307.769 1015.62C307.769 1018.64 308.965 1021.54 311.092 1023.67C313.22 1025.8 316.106 1027 319.115 1027H409.885C412.894 1027 415.78 1025.8 417.908 1023.67C420.035 1021.54 421.231 1018.64 421.231 1015.62C421.231 1012.61 420.035 1009.71 417.908 1007.58C415.78 1005.45 412.894 1004.25 409.885 1004.25H375.846V981.5H447.679C446.916 989.917 446.793 998.41 447.325 1006.91C449.222 1037.25 459.389 1066.49 476.723 1091.46V1091.78C477.112 1092.4 477.54 1092.99 478.004 1093.55C491.013 1111.68 507.534 1127.01 526.585 1138.63C545.637 1150.26 566.83 1157.93 588.907 1161.2C610.983 1164.47 633.491 1163.27 655.095 1157.67C676.698 1152.08 696.956 1142.19 714.664 1128.61L716.906 1126.85C738.395 1109.74 755.38 1087.65 766.383 1062.48C766.718 1061.87 766.986 1061.23 767.184 1060.56C781.771 1025.56 783.977 986.637 773.437 950.216C762.898 913.795 740.243 882.061 709.22 860.261L707.298 859.141C679.708 840.12 646.979 829.956 613.467 830C583.066 830.011 553.248 838.343 527.246 854.094C521.959 857.296 516.87 860.781 512 864.527V788.125C511.963 779.086 508.365 770.428 501.989 764.036C495.614 757.645 486.978 754.037 477.962 754ZM463.32 924.625H239.692V947.375C239.692 950.392 240.888 953.285 243.016 955.418C245.143 957.552 248.029 958.75 251.038 958.75H451.34C454.073 947.014 458.081 935.569 463.32 924.625ZM513.231 1084.9L506.986 1088.74C528.987 1114.15 559.346 1130.86 592.584 1135.85C625.822 1140.84 659.75 1133.79 688.244 1115.96L681.839 1109.56L647.413 1100.59C641.312 1098.94 636.025 1095.11 632.546 1089.83C629.067 1084.55 627.635 1078.19 628.519 1071.93L632.362 1045.99C633.034 1041.63 634.815 1037.51 637.535 1034.04C640.255 1030.56 643.821 1027.84 647.893 1026.14L696.73 1005.8C701.235 1003.97 706.166 1003.45 710.954 1004.3C715.743 1005.15 720.193 1007.34 723.791 1010.61L749.25 1033.98C752.665 1021.79 754.389 1009.18 754.374 996.517C754.416 960.239 740.415 925.353 715.305 899.169L715.625 908.455C715.821 911.709 715.37 914.969 714.298 918.047C713.226 921.125 711.555 923.96 709.38 926.388L673.993 967.377C669.913 972.145 664.206 975.226 657.981 976.023L607.703 982.907C601.149 983.736 594.522 982.08 589.129 978.264L568.633 963.374C567.219 962.361 565.613 961.647 563.914 961.276C562.214 960.904 560.457 960.882 558.749 961.212C557.041 961.541 555.418 962.215 553.979 963.193C552.54 964.17 551.315 965.43 550.379 966.896L527.962 1002.12C526.649 1004.18 525.928 1006.56 525.881 1009.01L525.56 1063.12C525.57 1067.51 524.438 1071.82 522.277 1075.64C520.115 1079.46 516.998 1082.65 513.231 1084.9Z" fill="#20252B"/>
<path fill-rule="evenodd" clip-rule="evenodd" d="M512 864.527C492.918 879.203 477.185 897.889 465.961 919.35C465.048 921.095 464.168 922.853 463.32 924.625H489.308V947.375C489.308 950.392 488.112 953.285 485.984 955.418C483.857 957.552 480.971 958.75 477.962 958.75H451.34C449.597 966.233 448.373 973.835 447.679 981.5H477.962C486.978 981.463 495.614 977.855 501.989 971.464C508.364 965.072 511.963 956.414 512 947.375V864.527Z" fill="#20252B"/>
</g>
<defs>
<radialGradient id="paint0_radial_1_82" cx="0" cy="0" r="1" gradientUnits="userSpaceOnUse" gradientTransform="translate(-106 489.147) rotate(2.25551) scale(1509.17 523.573)">
<stop stop-color="#98EFD5" stop-opacity="0.19"/>
<stop offset="1" stop-color="white" stop-opacity="0"/>
</radialGradient>
<radialGradient id="paint1_radial_1_82" cx="0" cy="0" r="1" gradientUnits="userSpaceOnUse" gradientTransform="translate(1007 44.2595) rotate(162.272) scale(1418.88 664.213)">
<stop stop-color="#7AC7FF"/>
<stop offset="1" stop-color="white" stop-opacity="0"/>
</radialGradient>
<radialGradient id="paint2_radial_1_82" cx="0" cy="0" r="1" gradientUnits="userSpaceOnUse" gradientTransform="translate(206 1024.5) rotate(8.21103) scale(839.785 387.844)">
<stop stop-color="#98EFD5" stop-opacity="0.75"/>
<stop offset="1" stop-color="white" stop-opacity="0"/>
</radialGradient>
<radialGradient id="paint3_radial_1_82" cx="0" cy="0" r="1" gradientUnits="userSpaceOnUse" gradientTransform="translate(803 745.972) rotate(156.922) scale(870.933 506.908)">
<stop stop-color="#7AC7FF"/>
<stop offset="1" stop-color="white" stop-opacity="0"/>
</radialGradient>
<clipPath id="clip0_1_82">
<rect width="1000" height="1330" fill="white"/>
</clipPath>
</defs>
</svg>
