<svg width="1000" height="1330" viewBox="0 0 1000 1330" fill="none" xmlns="http://www.w3.org/2000/svg">
<g clip-path="url(#clip0_2_2)">
<rect width="1007" height="610" fill="#F5F6F7"/>
<rect width="1007" height="610" fill="url(#paint0_radial_2_2)"/>
<rect width="1007" height="610" fill="url(#paint1_radial_2_2)" fill-opacity="0.2"/>
<rect x="172" y="719" width="603" height="448" fill="#F5F6F7"/>
<rect x="172" y="719" width="603" height="448" fill="url(#paint2_radial_2_2)"/>
<rect x="172" y="719" width="603" height="448" fill="url(#paint3_radial_2_2)" fill-opacity="0.5"/>
<path d="M195.249 115.681C195.612 116.362 195.943 117.075 196.242 117.82C196.563 118.544 196.873 119.279 197.172 120.024C197.471 119.257 197.78 118.502 198.101 117.757C198.422 117.011 198.763 116.298 199.126 115.617L212.843 90.0383C213.014 89.719 213.185 89.4635 213.356 89.2719C213.549 89.0804 213.751 88.9419 213.965 88.8568C214.2 88.7716 214.456 88.7184 214.734 88.6971C215.012 88.6758 215.343 88.6652 215.727 88.6652H222.233V134.841H214.638V105.015C214.638 104.462 214.649 103.855 214.67 103.195C214.713 102.535 214.766 101.864 214.83 101.183L200.825 127.369C200.505 127.965 200.088 128.433 199.575 128.774C199.062 129.093 198.464 129.253 197.78 129.253H196.595C195.911 129.253 195.313 129.093 194.8 128.774C194.287 128.433 193.871 127.965 193.55 127.369L179.353 101.087C179.439 101.79 179.492 102.482 179.513 103.163C179.556 103.823 179.577 104.44 179.577 105.015V134.841H171.981V88.6652H178.487C178.872 88.6652 179.203 88.6758 179.481 88.6971C179.758 88.7184 180.004 88.7716 180.218 88.8568C180.453 88.9419 180.667 89.0804 180.859 89.2719C181.051 89.4635 181.233 89.719 181.404 90.0383L195.249 115.681Z" fill="#20252B"/>
<path d="M244.711 101.566C246.784 101.566 248.685 101.896 250.416 102.556C252.168 103.216 253.674 104.185 254.935 105.462C256.195 106.718 257.178 108.272 257.883 110.124C258.588 111.955 258.94 114.052 258.94 116.415C258.94 117.011 258.909 117.512 258.844 117.916C258.802 118.299 258.705 118.608 258.556 118.842C258.428 119.055 258.246 119.215 258.012 119.321C257.776 119.406 257.477 119.449 257.114 119.449H236.795C237.03 122.813 237.938 125.282 239.52 126.858C241.101 128.433 243.195 129.221 245.801 129.221C247.083 129.221 248.183 129.072 249.102 128.774C250.042 128.475 250.854 128.146 251.537 127.784C252.243 127.422 252.852 127.092 253.364 126.794C253.899 126.496 254.411 126.347 254.902 126.347C255.223 126.347 255.501 126.411 255.736 126.538C255.971 126.666 256.174 126.847 256.345 127.081L258.652 129.955C257.776 130.977 256.794 131.839 255.703 132.542C254.614 133.223 253.471 133.776 252.274 134.202C251.099 134.607 249.892 134.894 248.653 135.064C247.435 135.235 246.25 135.32 245.096 135.32C242.81 135.32 240.684 134.947 238.719 134.202C236.753 133.436 235.044 132.318 233.59 130.849C232.138 129.359 230.995 127.528 230.161 125.357C229.328 123.164 228.912 120.631 228.912 117.757C228.912 115.521 229.275 113.424 230.001 111.466C230.727 109.486 231.764 107.772 233.11 106.324C234.477 104.855 236.133 103.695 238.077 102.844C240.043 101.992 242.254 101.566 244.711 101.566ZM244.871 107.218C242.564 107.218 240.758 107.868 239.456 109.166C238.152 110.465 237.319 112.307 236.955 114.691H251.826C251.826 113.669 251.687 112.711 251.409 111.817C251.132 110.901 250.704 110.103 250.127 109.422C249.551 108.741 248.824 108.208 247.948 107.825C247.072 107.421 246.047 107.218 244.871 107.218Z" fill="#20252B"/>
<path d="M265.362 134.841V102.077H270.201C271.227 102.077 271.9 102.556 272.22 103.514L272.733 105.941C273.31 105.302 273.908 104.717 274.528 104.185C275.168 103.653 275.841 103.195 276.547 102.812C277.273 102.428 278.042 102.13 278.854 101.918C279.688 101.683 280.595 101.566 281.578 101.566C283.651 101.566 285.349 102.13 286.674 103.259C288.02 104.366 289.024 105.845 289.686 107.697C290.199 106.612 290.84 105.686 291.609 104.919C292.378 104.132 293.223 103.493 294.141 103.003C295.06 102.514 296.032 102.152 297.057 101.918C298.104 101.683 299.151 101.566 300.198 101.566C302.014 101.566 303.627 101.843 305.038 102.397C306.448 102.95 307.633 103.759 308.595 104.824C309.556 105.888 310.282 107.187 310.774 108.719C311.287 110.252 311.543 112.008 311.543 113.988V134.841H303.627V113.988C303.627 111.902 303.168 110.337 302.249 109.294C301.33 108.23 299.984 107.697 298.211 107.697C297.399 107.697 296.641 107.836 295.935 108.113C295.252 108.389 294.643 108.794 294.109 109.326C293.597 109.837 293.19 110.486 292.891 111.274C292.592 112.062 292.442 112.967 292.442 113.988V134.841H284.494V113.988C284.494 111.796 284.046 110.199 283.148 109.198C282.272 108.198 280.969 107.697 279.239 107.697C278.106 107.697 277.038 107.985 276.033 108.56C275.051 109.113 274.132 109.88 273.277 110.859V134.841H265.362Z" fill="#20252B"/>
<path d="M319.414 134.841V87.3878H327.33V106.101C328.633 104.717 330.108 103.621 331.753 102.812C333.398 101.981 335.321 101.566 337.522 101.566C339.316 101.566 340.951 101.939 342.425 102.684C343.92 103.408 345.202 104.472 346.271 105.877C347.36 107.282 348.193 109.017 348.77 111.082C349.368 113.147 349.667 115.521 349.667 118.204C349.667 120.652 349.337 122.919 348.674 125.005C348.011 127.092 347.061 128.901 345.822 130.434C344.604 131.967 343.119 133.17 341.367 134.043C339.636 134.894 337.692 135.32 335.534 135.32C334.53 135.32 333.611 135.213 332.778 135.001C331.945 134.809 331.186 134.532 330.502 134.17C329.819 133.808 329.178 133.372 328.58 132.861C328.003 132.329 327.447 131.743 326.913 131.105L326.561 133.308C326.433 133.862 326.208 134.255 325.888 134.49C325.589 134.724 325.172 134.841 324.638 134.841H319.414ZM334.797 107.697C333.152 107.697 331.742 108.049 330.567 108.751C329.413 109.432 328.334 110.401 327.33 111.657V126.347C328.227 127.454 329.2 128.231 330.246 128.678C331.315 129.103 332.468 129.316 333.708 129.316C334.904 129.316 335.983 129.093 336.944 128.646C337.905 128.199 338.718 127.517 339.38 126.602C340.064 125.687 340.588 124.537 340.951 123.153C341.314 121.748 341.495 120.098 341.495 118.204C341.495 116.288 341.335 114.67 341.015 113.35C340.716 112.008 340.278 110.923 339.7 110.093C339.124 109.262 338.419 108.655 337.586 108.272C336.774 107.889 335.844 107.697 334.797 107.697Z" fill="#20252B"/>
<path d="M369.461 101.566C371.533 101.566 373.435 101.896 375.166 102.556C376.918 103.216 378.424 104.185 379.684 105.462C380.945 106.718 381.928 108.272 382.633 110.124C383.338 111.955 383.691 114.052 383.691 116.415C383.691 117.011 383.658 117.512 383.594 117.916C383.552 118.299 383.456 118.608 383.306 118.842C383.178 119.055 382.996 119.215 382.761 119.321C382.526 119.406 382.227 119.449 381.864 119.449H361.545C361.781 122.813 362.689 125.282 364.269 126.858C365.85 128.433 367.944 129.221 370.551 129.221C371.833 129.221 372.934 129.072 373.852 128.774C374.792 128.475 375.604 128.146 376.288 127.784C376.992 127.422 377.601 127.092 378.114 126.794C378.648 126.496 379.161 126.347 379.653 126.347C379.973 126.347 380.251 126.411 380.486 126.538C380.72 126.666 380.924 126.847 381.094 127.081L383.403 129.955C382.526 130.977 381.543 131.839 380.454 132.542C379.365 133.223 378.221 133.776 377.025 134.202C375.85 134.607 374.643 134.894 373.403 135.064C372.186 135.235 370.999 135.32 369.846 135.32C367.559 135.32 365.434 134.947 363.468 134.202C361.502 133.436 359.793 132.318 358.341 130.849C356.888 129.359 355.744 127.528 354.912 125.357C354.078 123.164 353.661 120.631 353.661 117.757C353.661 115.521 354.024 113.424 354.751 111.466C355.478 109.486 356.514 107.772 357.86 106.324C359.227 104.855 360.883 103.695 362.828 102.844C364.793 101.992 367.004 101.566 369.461 101.566ZM369.622 107.218C367.314 107.218 365.509 107.868 364.205 109.166C362.902 110.465 362.069 112.307 361.706 114.691H376.576C376.576 113.669 376.437 112.711 376.159 111.817C375.881 110.901 375.454 110.103 374.878 109.422C374.3 108.741 373.574 108.208 372.698 107.825C371.822 107.421 370.796 107.218 369.622 107.218Z" fill="#20252B"/>
<path d="M390.112 134.841V102.077H394.759C395.571 102.077 396.137 102.226 396.457 102.524C396.778 102.822 396.992 103.333 397.098 104.057L397.579 108.017C398.754 105.994 400.132 104.398 401.714 103.227C403.294 102.056 405.068 101.47 407.033 101.47C408.657 101.47 410.003 101.843 411.071 102.588L410.046 108.496C409.982 108.879 409.843 109.156 409.629 109.326C409.416 109.475 409.127 109.55 408.763 109.55C408.444 109.55 408.005 109.475 407.45 109.326C406.894 109.177 406.157 109.102 405.238 109.102C403.593 109.102 402.183 109.56 401.008 110.476C399.833 111.37 398.839 112.69 398.028 114.435V134.841H390.112Z" fill="#20252B"/>
<path d="M416.372 134.841V87.3878H424.288V106.101C425.592 104.717 427.065 103.621 428.711 102.812C430.356 101.981 432.278 101.566 434.479 101.566C436.274 101.566 437.908 101.939 439.382 102.684C440.878 103.408 442.16 104.472 443.229 105.877C444.318 107.282 445.151 109.017 445.729 111.082C446.327 113.147 446.626 115.521 446.626 118.204C446.626 120.652 446.295 122.919 445.632 125.005C444.97 127.092 444.019 128.901 442.78 130.434C441.562 131.967 440.077 133.17 438.326 134.043C436.595 134.894 434.651 135.32 432.493 135.32C431.488 135.32 430.569 135.213 429.736 135.001C428.903 134.809 428.145 134.532 427.461 134.17C426.777 133.808 426.137 133.372 425.538 132.861C424.961 132.329 424.406 131.743 423.872 131.105L423.519 133.308C423.391 133.862 423.166 134.255 422.846 134.49C422.547 134.724 422.13 134.841 421.596 134.841H416.372ZM431.755 107.697C430.11 107.697 428.7 108.049 427.525 108.751C426.371 109.432 425.292 110.401 424.288 111.657V126.347C425.185 127.454 426.157 128.231 427.204 128.678C428.273 129.103 429.427 129.316 430.666 129.316C431.862 129.316 432.941 129.093 433.903 128.646C434.864 128.199 435.676 127.517 436.338 126.602C437.022 125.687 437.545 124.537 437.908 123.153C438.272 121.748 438.454 120.098 438.454 118.204C438.454 116.288 438.293 114.67 437.972 113.35C437.673 112.008 437.235 110.923 436.659 110.093C436.082 109.262 435.377 108.655 434.543 108.272C433.732 107.889 432.802 107.697 431.755 107.697Z" fill="#20252B"/>
<path d="M478.598 134.841H475.04C474.292 134.841 473.705 134.734 473.278 134.522C472.85 134.287 472.53 133.83 472.317 133.148L471.611 130.817C470.778 131.562 469.955 132.222 469.143 132.797C468.353 133.351 467.531 133.819 466.676 134.202C465.821 134.585 464.914 134.873 463.951 135.064C462.99 135.256 461.922 135.352 460.747 135.352C459.358 135.352 458.076 135.171 456.901 134.809C455.726 134.426 454.711 133.862 453.856 133.117C453.024 132.371 452.371 131.445 451.902 130.338C451.432 129.231 451.197 127.943 451.197 126.474C451.197 125.24 451.517 124.026 452.158 122.834C452.82 121.62 453.91 120.535 455.427 119.577C456.944 118.597 458.963 117.788 461.484 117.15C464.005 116.511 467.135 116.149 470.874 116.064V114.148C470.874 111.955 470.404 110.337 469.464 109.294C468.545 108.23 467.199 107.697 465.426 107.697C464.144 107.697 463.076 107.846 462.221 108.145C461.366 108.443 460.619 108.783 459.978 109.166C459.358 109.528 458.782 109.858 458.247 110.156C457.713 110.454 457.126 110.603 456.484 110.603C455.95 110.603 455.491 110.465 455.107 110.188C454.722 109.912 454.412 109.571 454.177 109.166L452.734 106.644C456.517 103.195 461.078 101.47 466.419 101.47C468.343 101.47 470.052 101.79 471.547 102.428C473.064 103.046 474.346 103.919 475.392 105.047C476.439 106.154 477.23 107.485 477.765 109.039C478.32 110.593 478.598 112.296 478.598 114.148V134.841ZM463.214 129.923C464.026 129.923 464.774 129.849 465.458 129.7C466.142 129.551 466.783 129.327 467.381 129.029C468 128.731 468.588 128.369 469.143 127.943C469.72 127.496 470.298 126.975 470.874 126.379V120.854C468.567 120.96 466.633 121.163 465.073 121.461C463.535 121.738 462.296 122.099 461.356 122.546C460.416 122.994 459.743 123.515 459.337 124.111C458.952 124.707 458.76 125.357 458.76 126.059C458.76 127.443 459.165 128.433 459.978 129.029C460.811 129.625 461.89 129.923 463.214 129.923Z" fill="#20252B"/>
<path d="M505.899 108.464C505.685 108.804 505.461 109.049 505.226 109.198C504.991 109.326 504.692 109.39 504.328 109.39C503.944 109.39 503.528 109.284 503.079 109.071C502.651 108.858 502.149 108.624 501.572 108.368C500.996 108.091 500.333 107.847 499.585 107.634C498.859 107.421 497.994 107.314 496.989 107.314C495.43 107.314 494.201 107.644 493.304 108.304C492.406 108.964 491.958 109.826 491.958 110.891C491.958 111.593 492.182 112.189 492.631 112.679C493.101 113.148 493.71 113.563 494.458 113.924C495.227 114.286 496.092 114.616 497.053 114.914C498.015 115.191 498.998 115.5 500.002 115.841C501.006 116.181 501.989 116.575 502.95 117.022C503.912 117.448 504.766 118.001 505.514 118.683C506.284 119.343 506.893 120.141 507.341 121.078C507.811 122.014 508.046 123.143 508.046 124.463C508.046 126.038 507.758 127.496 507.181 128.837C506.604 130.157 505.76 131.307 504.649 132.286C503.538 133.244 502.16 134 500.515 134.554C498.891 135.086 497.022 135.352 494.906 135.352C493.774 135.352 492.663 135.245 491.574 135.032C490.505 134.841 489.469 134.564 488.465 134.202C487.482 133.84 486.564 133.415 485.709 132.925C484.875 132.435 484.138 131.903 483.498 131.328L485.324 128.326C485.559 127.965 485.836 127.688 486.157 127.496C486.478 127.305 486.883 127.209 487.375 127.209C487.866 127.209 488.326 127.347 488.753 127.624C489.201 127.901 489.714 128.199 490.292 128.518C490.868 128.837 491.541 129.135 492.311 129.412C493.101 129.689 494.095 129.827 495.291 129.827C496.231 129.827 497.033 129.721 497.695 129.508C498.379 129.274 498.934 128.976 499.361 128.614C499.809 128.252 500.13 127.837 500.323 127.368C500.536 126.879 500.643 126.379 500.643 125.868C500.643 125.101 500.408 124.473 499.938 123.984C499.489 123.494 498.88 123.068 498.111 122.706C497.363 122.344 496.498 122.025 495.515 121.748C494.554 121.45 493.56 121.131 492.535 120.79C491.53 120.45 490.537 120.056 489.555 119.609C488.592 119.14 487.728 118.555 486.958 117.852C486.21 117.15 485.601 116.288 485.132 115.266C484.683 114.244 484.459 113.009 484.459 111.561C484.459 110.22 484.726 108.943 485.26 107.729C485.794 106.516 486.573 105.462 487.6 104.568C488.647 103.653 489.938 102.929 491.477 102.397C493.037 101.843 494.832 101.566 496.861 101.566C499.126 101.566 501.188 101.939 503.046 102.684C504.905 103.429 506.455 104.408 507.694 105.622L505.899 108.464Z" fill="#20252B"/>
<path d="M527.95 101.566C530.022 101.566 531.924 101.896 533.655 102.556C535.406 103.216 536.912 104.185 538.173 105.462C539.433 106.718 540.416 108.272 541.122 110.124C541.826 111.955 542.179 114.052 542.179 116.415C542.179 117.011 542.147 117.512 542.083 117.916C542.04 118.299 541.944 118.608 541.795 118.842C541.666 119.055 541.485 119.215 541.25 119.321C541.014 119.406 540.715 119.449 540.352 119.449H520.034C520.269 122.813 521.176 125.282 522.757 126.858C524.339 128.433 526.432 129.221 529.039 129.221C530.321 129.221 531.421 129.072 532.34 128.774C533.281 128.475 534.092 128.146 534.776 127.784C535.481 127.422 536.09 127.092 536.602 126.794C537.137 126.496 537.649 126.347 538.141 126.347C538.461 126.347 538.739 126.411 538.974 126.538C539.209 126.666 539.412 126.847 539.583 127.081L541.89 129.955C541.014 130.977 540.031 131.839 538.942 132.542C537.852 133.223 536.71 133.776 535.513 134.202C534.337 134.607 533.131 134.894 531.891 135.064C530.673 135.235 529.488 135.32 528.334 135.32C526.048 135.32 523.922 134.947 521.957 134.202C519.991 133.436 518.282 132.318 516.829 130.849C515.376 129.359 514.233 127.528 513.399 125.357C512.567 123.164 512.15 120.631 512.15 117.757C512.15 115.521 512.513 113.424 513.24 111.466C513.966 109.486 515.002 107.772 516.348 106.324C517.716 104.855 519.372 103.695 521.316 102.844C523.281 101.992 525.493 101.566 527.95 101.566ZM528.11 107.218C525.803 107.218 523.997 107.868 522.694 109.166C521.391 110.465 520.557 112.307 520.194 114.691H535.065C535.065 113.669 534.926 112.711 534.647 111.817C534.37 110.901 533.943 110.103 533.365 109.422C532.789 108.741 532.063 108.208 531.187 107.825C530.31 107.421 529.285 107.218 528.11 107.218Z" fill="#20252B"/>
<path d="M95.0265 106.172L70 133.538L138.699 150.037C143.199 151.118 146.891 146.431 144.77 142.332L131.565 116.814L144.178 79.2108L86.7318 72.3274C82.406 71.8091 79.2737 76.3416 81.3025 80.1835L95.0265 106.172Z" fill="#20252B"/>
<path d="M80.6353 384H68.1717L90.8643 319.542H105.279L128.003 384H115.54L98.3235 332.761H97.82L80.6353 384ZM81.0445 358.727H115.036V368.106H81.0445V358.727ZM147.383 319.542V384H135.99V319.542H147.383ZM170.493 319.542V384H159.099V319.542H170.493ZM204.193 384V335.656H215.587V384H204.193ZM209.922 328.795C208.117 328.795 206.564 328.197 205.263 327.001C203.963 325.784 203.312 324.326 203.312 322.626C203.312 320.906 203.963 319.447 205.263 318.251C206.564 317.034 208.117 316.426 209.922 316.426C211.747 316.426 213.3 317.034 214.58 318.251C215.881 319.447 216.531 320.906 216.531 322.626C216.531 324.326 215.881 325.784 214.58 327.001C213.3 328.197 211.747 328.795 209.922 328.795ZM238.696 355.674V384H227.303V335.656H238.193V343.871H238.759C239.872 341.164 241.645 339.014 244.078 337.419C246.533 335.824 249.565 335.027 253.174 335.027C256.511 335.027 259.417 335.74 261.893 337.167C264.39 338.594 266.32 340.661 267.684 343.367C269.069 346.074 269.751 349.358 269.73 353.219V384H258.336V354.981C258.336 351.75 257.497 349.222 255.818 347.396C254.161 345.571 251.863 344.658 248.925 344.658C246.932 344.658 245.159 345.098 243.606 345.98C242.075 346.84 240.868 348.088 239.987 349.725C239.127 351.362 238.696 353.345 238.696 355.674ZM361.397 351.771C361.397 358.716 360.096 364.665 357.494 369.616C354.913 374.547 351.388 378.324 346.919 380.947C342.471 383.57 337.424 384.881 331.78 384.881C326.136 384.881 321.079 383.57 316.61 380.947C312.161 378.303 308.636 374.516 306.035 369.585C303.454 364.633 302.163 358.695 302.163 351.771C302.163 344.826 303.454 338.888 306.035 333.957C308.636 329.005 312.161 325.218 316.61 322.595C321.079 319.972 326.136 318.66 331.78 318.66C337.424 318.66 342.471 319.972 346.919 322.595C351.388 325.218 354.913 329.005 357.494 333.957C360.096 338.888 361.397 344.826 361.397 351.771ZM349.657 351.771C349.657 346.882 348.891 342.759 347.36 339.402C345.849 336.024 343.751 333.474 341.065 331.754C338.379 330.012 335.284 329.141 331.78 329.141C328.276 329.141 325.181 330.012 322.495 331.754C319.81 333.474 317.701 336.024 316.169 339.402C314.658 342.759 313.903 346.882 313.903 351.771C313.903 356.66 314.658 360.793 316.169 364.172C317.701 367.529 319.81 370.078 322.495 371.82C325.181 373.54 328.276 374.401 331.78 374.401C335.284 374.401 338.379 373.54 341.065 371.82C343.751 370.078 345.849 367.529 347.36 364.172C348.891 360.793 349.657 356.66 349.657 351.771ZM383.326 355.674V384H371.933V335.656H382.823V343.871H383.389C384.501 341.164 386.274 339.014 388.708 337.419C391.163 335.824 394.195 335.027 397.804 335.027C401.14 335.027 404.046 335.74 406.522 337.167C409.019 338.594 410.95 340.661 412.314 343.367C413.698 346.074 414.38 349.358 414.359 353.219V384H402.966V354.981C402.966 351.75 402.127 349.222 400.448 347.396C398.79 345.571 396.493 344.658 393.555 344.658C391.562 344.658 389.789 345.098 388.236 345.98C386.704 346.84 385.498 348.088 384.617 349.725C383.756 351.362 383.326 353.345 383.326 355.674ZM447.344 384.944C442.497 384.944 438.311 383.937 434.786 381.923C431.282 379.887 428.585 377.013 426.697 373.299C424.809 369.564 423.864 365.168 423.864 360.111C423.864 355.139 424.809 350.774 426.697 347.018C428.606 343.241 431.271 340.304 434.691 338.206C438.112 336.086 442.13 335.027 446.746 335.027C449.725 335.027 452.537 335.509 455.181 336.475C457.846 337.419 460.196 338.888 462.231 340.881C464.287 342.874 465.903 345.413 467.078 348.498C468.253 351.561 468.84 355.212 468.84 359.45V362.944H429.215V355.264H457.919C457.898 353.082 457.426 351.141 456.503 349.442C455.579 347.721 454.289 346.368 452.631 345.382C450.995 344.396 449.085 343.902 446.903 343.902C444.574 343.902 442.528 344.469 440.766 345.602C439.003 346.714 437.629 348.183 436.643 350.008C435.678 351.813 435.184 353.796 435.164 355.957V362.661C435.164 365.472 435.678 367.885 436.706 369.9C437.734 371.893 439.171 373.425 441.018 374.495C442.864 375.544 445.025 376.069 447.501 376.069C449.159 376.069 450.659 375.838 452.002 375.376C453.345 374.894 454.509 374.191 455.496 373.267C456.482 372.344 457.227 371.201 457.73 369.837L468.368 371.033C467.697 373.844 466.417 376.299 464.529 378.398C462.661 380.475 460.269 382.091 457.353 383.245C454.436 384.378 451.1 384.944 447.344 384.944ZM556.141 341.29H544.37C544.034 339.36 543.415 337.65 542.513 336.16C541.61 334.649 540.488 333.369 539.145 332.32C537.802 331.271 536.27 330.484 534.55 329.96C532.85 329.414 531.014 329.141 529.042 329.141C525.538 329.141 522.432 330.023 519.726 331.785C517.019 333.527 514.9 336.086 513.368 339.465C511.836 342.822 511.07 346.924 511.07 351.771C511.07 356.702 511.836 360.856 513.368 364.234C514.921 367.592 517.04 370.131 519.726 371.851C522.432 373.551 525.527 374.401 529.01 374.401C530.941 374.401 532.745 374.149 534.424 373.645C536.123 373.121 537.645 372.355 538.988 371.348C540.351 370.34 541.495 369.102 542.418 367.634C543.362 366.165 544.013 364.486 544.37 362.598L556.141 362.661C555.7 365.724 554.745 368.599 553.277 371.285C551.829 373.97 549.93 376.341 547.58 378.398C545.23 380.433 542.481 382.028 539.334 383.182C536.186 384.315 532.693 384.881 528.853 384.881C523.188 384.881 518.131 383.57 513.683 380.947C509.234 378.324 505.73 374.537 503.17 369.585C500.611 364.633 499.331 358.695 499.331 351.771C499.331 344.826 500.621 338.888 503.202 333.957C505.783 329.005 509.297 325.218 513.746 322.595C518.194 319.972 523.23 318.66 528.853 318.66C532.441 318.66 535.777 319.164 538.862 320.171C541.946 321.178 544.695 322.658 547.108 324.609C549.521 326.539 551.504 328.91 553.056 331.722C554.63 334.513 555.658 337.702 556.141 341.29ZM587.418 384.944C582.697 384.944 578.605 383.906 575.143 381.828C571.681 379.751 568.995 376.845 567.086 373.11C565.197 369.375 564.253 365.011 564.253 360.017C564.253 355.023 565.197 350.648 567.086 346.892C568.995 343.137 571.681 340.22 575.143 338.143C578.605 336.065 582.697 335.027 587.418 335.027C592.139 335.027 596.23 336.065 599.693 338.143C603.155 340.22 605.83 343.137 607.718 346.892C609.628 350.648 610.583 355.023 610.583 360.017C610.583 365.011 609.628 369.375 607.718 373.11C605.83 376.845 603.155 379.751 599.693 381.828C596.23 383.906 592.139 384.944 587.418 384.944ZM587.481 375.817C590.041 375.817 592.181 375.114 593.901 373.708C595.622 372.281 596.902 370.372 597.741 367.98C598.601 365.588 599.032 362.923 599.032 359.986C599.032 357.027 598.601 354.352 597.741 351.96C596.902 349.547 595.622 347.627 593.901 346.2C592.181 344.773 590.041 344.06 587.481 344.06C584.858 344.06 582.676 344.773 580.934 346.2C579.214 347.627 577.923 349.547 577.063 351.96C576.224 354.352 575.804 357.027 575.804 359.986C575.804 362.923 576.224 365.588 577.063 367.98C577.923 370.372 579.214 372.281 580.934 373.708C582.676 375.114 584.858 375.817 587.481 375.817ZM631.646 319.542V384H620.253V319.542H631.646ZM664.45 384.944C659.729 384.944 655.637 383.906 652.175 381.828C648.713 379.751 646.027 376.845 644.118 373.11C642.229 369.375 641.285 365.011 641.285 360.017C641.285 355.023 642.229 350.648 644.118 346.892C646.027 343.137 648.713 340.22 652.175 338.143C655.637 336.065 659.729 335.027 664.45 335.027C669.171 335.027 673.262 336.065 676.725 338.143C680.187 340.22 682.862 343.137 684.75 346.892C686.66 350.648 687.615 355.023 687.615 360.017C687.615 365.011 686.66 369.375 684.75 373.11C682.862 376.845 680.187 379.751 676.725 381.828C673.262 383.906 669.171 384.944 664.45 384.944ZM664.513 375.817C667.073 375.817 669.213 375.114 670.933 373.708C672.654 372.281 673.934 370.372 674.773 367.98C675.634 365.588 676.064 362.923 676.064 359.986C676.064 357.027 675.634 354.352 674.773 351.96C673.934 349.547 672.654 347.627 670.933 346.2C669.213 344.773 667.073 344.06 664.513 344.06C661.89 344.06 659.708 344.773 657.966 346.2C656.246 347.627 654.955 349.547 654.095 351.96C653.256 354.352 652.836 357.027 652.836 359.986C652.836 362.923 653.256 365.588 654.095 367.98C654.955 370.372 656.246 372.281 657.966 373.708C659.708 375.114 661.89 375.817 664.513 375.817ZM697.285 384V335.656H708.332V343.714H708.836C709.717 340.923 711.228 338.772 713.368 337.261C715.529 335.73 717.995 334.964 720.764 334.964C721.394 334.964 722.097 334.995 722.873 335.058C723.67 335.1 724.331 335.174 724.856 335.279V345.759C724.373 345.592 723.607 345.445 722.558 345.319C721.53 345.172 720.533 345.098 719.568 345.098C717.491 345.098 715.624 345.55 713.966 346.452C712.329 347.333 711.039 348.561 710.095 350.134C709.15 351.708 708.678 353.523 708.678 355.579V384H697.285ZM72.3577 491V426.542H84.0345V453.829H113.903V426.542H125.611V491H113.903V463.618H84.0345V491H72.3577ZM151.719 491.976C148.655 491.976 145.896 491.43 143.441 490.339C141.007 489.227 139.077 487.59 137.65 485.429C136.244 483.268 135.541 480.603 135.541 477.435C135.541 474.707 136.045 472.451 137.052 470.668C138.059 468.884 139.434 467.458 141.175 466.388C142.917 465.317 144.878 464.51 147.061 463.964C149.264 463.398 151.54 462.988 153.89 462.737C156.723 462.443 159.021 462.181 160.783 461.95C162.546 461.698 163.826 461.32 164.623 460.817C165.441 460.292 165.85 459.484 165.85 458.393V458.204C165.85 455.833 165.148 453.997 163.742 452.696C162.336 451.396 160.311 450.745 157.667 450.745C154.877 450.745 152.663 451.354 151.026 452.571C149.411 453.788 148.32 455.225 147.753 456.882L137.115 455.372C137.954 452.434 139.339 449.979 141.269 448.007C143.2 446.014 145.56 444.524 148.351 443.538C151.142 442.53 154.226 442.027 157.604 442.027C159.933 442.027 162.252 442.3 164.56 442.845C166.868 443.391 168.977 444.293 170.886 445.552C172.796 446.79 174.327 448.479 175.481 450.619C176.656 452.759 177.244 455.435 177.244 458.645V491H166.291V484.359H165.913C165.221 485.702 164.245 486.961 162.986 488.136C161.748 489.29 160.185 490.224 158.297 490.937C156.429 491.629 154.237 491.976 151.719 491.976ZM154.677 483.604C156.964 483.604 158.947 483.153 160.626 482.25C162.304 481.327 163.595 480.11 164.497 478.599C165.42 477.089 165.882 475.441 165.882 473.658V467.961C165.525 468.255 164.917 468.528 164.056 468.78C163.217 469.031 162.273 469.252 161.224 469.44C160.175 469.629 159.136 469.797 158.108 469.944C157.08 470.091 156.188 470.217 155.433 470.322C153.733 470.553 152.212 470.93 150.869 471.455C149.526 471.979 148.466 472.714 147.69 473.658C146.914 474.581 146.526 475.777 146.526 477.246C146.526 479.344 147.291 480.928 148.823 481.999C150.355 483.069 152.306 483.604 154.677 483.604ZM200.094 462.674V491H188.7V442.656H199.59V450.871H200.157C201.269 448.164 203.042 446.014 205.476 444.419C207.931 442.824 210.963 442.027 214.572 442.027C217.908 442.027 220.814 442.74 223.29 444.167C225.787 445.594 227.717 447.661 229.081 450.367C230.466 453.074 231.148 456.358 231.127 460.219V491H219.734V461.981C219.734 458.75 218.894 456.222 217.216 454.396C215.558 452.571 213.26 451.658 210.323 451.658C208.33 451.658 206.557 452.098 205.004 452.98C203.472 453.84 202.266 455.088 201.384 456.725C200.524 458.362 200.094 460.345 200.094 462.674ZM260.649 491.85C256.852 491.85 253.452 490.874 250.452 488.923C247.451 486.971 245.08 484.139 243.339 480.425C241.597 476.711 240.727 472.2 240.727 466.891C240.727 461.52 241.608 456.987 243.37 453.294C245.154 449.581 247.556 446.779 250.578 444.891C253.599 442.982 256.967 442.027 260.681 442.027C263.514 442.027 265.843 442.509 267.668 443.475C269.494 444.419 270.941 445.562 272.011 446.905C273.082 448.227 273.91 449.476 274.498 450.651H274.97V426.542H286.395V491H275.19V483.383H274.498C273.91 484.558 273.061 485.807 271.949 487.129C270.836 488.43 269.368 489.542 267.542 490.465C265.717 491.388 263.419 491.85 260.649 491.85ZM263.828 482.502C266.241 482.502 268.298 481.852 269.997 480.551C271.697 479.229 272.987 477.393 273.868 475.043C274.75 472.693 275.19 469.955 275.19 466.828C275.19 463.702 274.75 460.985 273.868 458.676C273.008 456.368 271.728 454.574 270.029 453.294C268.35 452.015 266.283 451.375 263.828 451.375C261.289 451.375 259.17 452.035 257.471 453.357C255.771 454.679 254.491 456.505 253.631 458.834C252.77 461.163 252.34 463.828 252.34 466.828C252.34 469.85 252.77 472.546 253.631 474.917C254.512 477.267 255.802 479.124 257.502 480.488C259.223 481.831 261.331 482.502 263.828 482.502ZM299.04 491V426.542H310.433V450.651H310.905C311.493 449.476 312.321 448.227 313.392 446.905C314.462 445.562 315.909 444.419 317.735 443.475C319.56 442.509 321.889 442.027 324.722 442.027C328.457 442.027 331.825 442.982 334.825 444.891C337.847 446.779 340.239 449.581 342.001 453.294C343.785 456.987 344.676 461.52 344.676 466.891C344.676 472.2 343.806 476.711 342.064 480.425C340.323 484.139 337.952 486.971 334.951 488.923C331.951 490.874 328.551 491.85 324.754 491.85C321.984 491.85 319.686 491.388 317.861 490.465C316.035 489.542 314.567 488.43 313.455 487.129C312.363 485.807 311.514 484.558 310.905 483.383H310.244V491H299.04ZM310.213 466.828C310.213 469.955 310.653 472.693 311.535 475.043C312.437 477.393 313.727 479.229 315.406 480.551C317.105 481.852 319.162 482.502 321.575 482.502C324.093 482.502 326.201 481.831 327.901 480.488C329.601 479.124 330.88 477.267 331.741 474.917C332.622 472.546 333.063 469.85 333.063 466.828C333.063 463.828 332.633 461.163 331.772 458.834C330.912 456.505 329.632 454.679 327.932 453.357C326.233 452.035 324.114 451.375 321.575 451.375C319.141 451.375 317.074 452.015 315.374 453.294C313.675 454.574 312.384 456.368 311.503 458.676C310.643 460.985 310.213 463.702 310.213 466.828ZM375.45 491.944C370.729 491.944 366.637 490.906 363.175 488.828C359.713 486.751 357.027 483.845 355.118 480.11C353.229 476.375 352.285 472.011 352.285 467.017C352.285 462.023 353.229 457.648 355.118 453.892C357.027 450.137 359.713 447.22 363.175 445.143C366.637 443.065 370.729 442.027 375.45 442.027C380.171 442.027 384.263 443.065 387.725 445.143C391.187 447.22 393.862 450.137 395.75 453.892C397.66 457.648 398.615 462.023 398.615 467.017C398.615 472.011 397.66 476.375 395.75 480.11C393.862 483.845 391.187 486.751 387.725 488.828C384.263 490.906 380.171 491.944 375.45 491.944ZM375.513 482.817C378.073 482.817 380.213 482.114 381.934 480.708C383.654 479.281 384.934 477.372 385.773 474.98C386.634 472.588 387.064 469.923 387.064 466.986C387.064 464.027 386.634 461.352 385.773 458.96C384.934 456.547 383.654 454.627 381.934 453.2C380.213 451.773 378.073 451.06 375.513 451.06C372.89 451.06 370.708 451.773 368.966 453.2C367.246 454.627 365.955 456.547 365.095 458.96C364.256 461.352 363.836 464.027 363.836 466.986C363.836 469.923 364.256 472.588 365.095 474.98C365.955 477.372 367.246 479.281 368.966 480.708C370.708 482.114 372.89 482.817 375.513 482.817ZM429.372 491.944C424.651 491.944 420.56 490.906 417.098 488.828C413.635 486.751 410.95 483.845 409.04 480.11C407.152 476.375 406.208 472.011 406.208 467.017C406.208 462.023 407.152 457.648 409.04 453.892C410.95 450.137 413.635 447.22 417.098 445.143C420.56 443.065 424.651 442.027 429.372 442.027C434.093 442.027 438.185 443.065 441.647 445.143C445.109 447.22 447.784 450.137 449.673 453.892C451.582 457.648 452.537 462.023 452.537 467.017C452.537 472.011 451.582 476.375 449.673 480.11C447.784 483.845 445.109 486.751 441.647 488.828C438.185 490.906 434.093 491.944 429.372 491.944ZM429.435 482.817C431.995 482.817 434.135 482.114 435.856 480.708C437.577 479.281 438.856 477.372 439.696 474.98C440.556 472.588 440.986 469.923 440.986 466.986C440.986 464.027 440.556 461.352 439.696 458.96C438.856 456.547 437.577 454.627 435.856 453.2C434.135 451.773 431.995 451.06 429.435 451.06C426.812 451.06 424.63 451.773 422.889 453.2C421.168 454.627 419.878 456.547 419.017 458.96C418.178 461.352 417.759 464.027 417.759 466.986C417.759 469.923 418.178 472.588 419.017 474.98C419.878 477.372 421.168 479.281 422.889 480.708C424.63 482.114 426.812 482.817 429.435 482.817ZM472.594 475.83L472.562 462.076H474.388L491.761 442.656H505.075L483.704 466.45H481.343L472.594 475.83ZM462.207 491V426.542H473.601V491H462.207ZM492.548 491L476.811 469L484.491 460.974L506.176 491H492.548Z" fill="black"/>
<path fill-rule="evenodd" clip-rule="evenodd" d="M0 574H1007V1330H0V574ZM207.86 735C236.775 735 269.356 751.027 304.38 782.401C328.951 804.404 349.992 829.531 364.518 848.546C376.701 844.836 389.584 844.031 402.134 846.195C414.684 848.36 426.554 853.434 436.793 861.011C446.523 868.213 454.524 877.485 460.223 888.15C465.19 882.55 470.559 877.271 476.305 872.357C505.589 847.312 542.775 833.377 581.327 833H583.061C626.028 832.97 667.269 849.887 697.811 880.07C713.257 895.056 725.561 912.963 734.005 932.748C742.448 952.533 746.862 973.799 746.99 995.305C747.133 1008.02 745.758 1020.7 742.892 1033.09C740.435 1044.26 734.209 1054.25 725.256 1061.39C716.303 1068.52 705.167 1072.37 693.713 1072.29H620.89C614.202 1072.29 607.787 1074.94 603.057 1079.66C598.328 1084.39 595.671 1090.79 595.671 1097.47V1103.61C595.672 1111.66 593.742 1119.6 590.041 1126.75C586.341 1133.9 580.978 1140.06 574.402 1144.72C567.826 1149.38 560.228 1152.39 552.246 1153.51C544.263 1154.63 536.128 1153.82 528.523 1151.16C492.154 1138.38 461.459 1113.2 441.832 1080.06C428.746 1057.96 421.138 1033.27 419.39 1008H388.41C375.675 1007.98 363.121 1004.98 351.753 999.231C340.386 993.486 330.521 985.158 322.947 974.914C315.374 964.67 310.302 952.795 308.139 940.238C305.975 927.681 306.78 914.792 310.488 902.603C291.483 888.07 266.369 867.018 244.377 842.434C213.019 807.392 197 774.795 197 745.866C197 742.984 198.144 740.22 200.181 738.182C202.218 736.145 204.98 735 207.86 735ZM344.426 858.053C340.49 853.028 335.874 847.324 330.58 841.076C319.714 848.416 310.358 857.776 303.022 868.648C309.267 873.945 314.968 878.562 319.991 882.501C326.275 872.681 334.611 864.34 344.426 858.053ZM286.596 854.115C294.718 842.728 304.673 832.768 316.054 824.642C289.447 795.848 253.608 764.337 219.942 757.954C226.322 791.637 257.817 827.494 286.596 854.115ZM510.893 1056.51C514.625 1056.75 518.346 1055.89 521.587 1054.02C523.741 1052.79 525.629 1051.13 527.143 1049.17C528.658 1047.2 529.769 1044.95 530.413 1042.55C531.057 1040.15 531.222 1037.65 530.897 1035.19C530.573 1032.73 529.766 1030.36 528.523 1028.21C526.652 1024.97 523.863 1022.36 520.508 1020.71C517.154 1019.06 513.384 1018.44 509.676 1018.93C505.968 1019.41 502.488 1020.99 499.675 1023.45C496.863 1025.91 494.844 1029.15 493.875 1032.76C492.906 1036.37 493.03 1040.18 494.23 1043.72C495.431 1047.26 497.655 1050.36 500.62 1052.64C503.586 1054.91 507.161 1056.26 510.893 1056.51ZM520.508 972.731C523.863 971.08 526.652 968.472 528.523 965.237C530.992 960.886 531.648 955.74 530.351 950.909C529.053 946.079 525.905 941.952 521.587 939.419C518.346 937.554 514.625 936.691 510.893 936.938C507.161 937.185 503.586 938.532 500.62 940.807C497.655 943.083 495.431 946.186 494.23 949.724C493.03 953.261 492.906 957.075 493.875 960.683C494.844 964.291 496.863 967.531 499.675 969.993C502.488 972.455 505.968 974.03 509.676 974.517C513.384 975.005 517.154 974.383 520.508 972.731ZM572.552 930.568C575.663 932.644 579.32 933.752 583.061 933.752C588.077 933.752 592.888 931.762 596.435 928.219C599.983 924.676 601.975 919.871 601.975 914.861C601.975 911.125 600.866 907.472 598.788 904.366C596.709 901.259 593.755 898.838 590.299 897.408C586.843 895.978 583.04 895.604 579.37 896.333C575.701 897.062 572.331 898.861 569.686 901.503C567.04 904.145 565.239 907.511 564.509 911.176C563.779 914.84 564.154 918.638 565.586 922.09C567.017 925.542 569.441 928.493 572.552 930.568ZM652.755 974.645C656.487 974.892 660.208 974.029 663.449 972.164C667.767 969.631 670.915 965.504 672.212 960.674C673.51 955.843 672.853 950.697 670.384 946.346C668.514 943.112 665.725 940.504 662.37 938.852C659.016 937.2 655.246 936.578 651.538 937.066C647.83 937.553 644.349 939.128 641.537 941.59C638.725 944.052 636.706 947.292 635.737 950.9C634.768 954.508 634.891 958.322 636.092 961.859C637.293 965.397 639.516 968.5 642.482 970.776C645.448 973.051 649.023 974.398 652.755 974.645Z" fill="#20252B"/>
<path fill-rule="evenodd" clip-rule="evenodd" d="M460.223 888.15C460.521 888.707 460.812 889.267 461.097 889.832C466.839 901.205 469.841 913.765 469.861 926.507C469.861 968.562 491.521 987.475 492.911 988.688C492.921 988.697 492.931 988.706 492.939 988.713C494.707 990.08 495.991 991.979 496.602 994.13C497.213 996.281 497.118 998.572 496.333 1000.67C495.638 1002.81 494.276 1004.68 492.445 1006C490.613 1007.32 488.408 1008.02 486.151 1008H419.39C418.516 995.371 419.106 982.6 421.207 969.941C426.275 939.407 439.874 911.092 460.223 888.15Z" fill="#20252B"/>
</g>
<defs>
<radialGradient id="paint0_radial_2_2" cx="0" cy="0" r="1" gradientUnits="userSpaceOnUse" gradientTransform="translate(-106 489.147) rotate(2.25551) scale(1509.17 523.573)">
<stop stop-color="#989BEF" stop-opacity="0.39"/>
<stop offset="1" stop-color="white" stop-opacity="0"/>
</radialGradient>
<radialGradient id="paint1_radial_2_2" cx="0" cy="0" r="1" gradientUnits="userSpaceOnUse" gradientTransform="translate(1007 44.2595) rotate(162.272) scale(1418.88 664.213)">
<stop stop-color="#7AA7FF"/>
<stop offset="1" stop-color="white" stop-opacity="0"/>
</radialGradient>
<radialGradient id="paint2_radial_2_2" cx="0" cy="0" r="1" gradientUnits="userSpaceOnUse" gradientTransform="translate(108.526 1078.24) rotate(2.76562) scale(904.056 384.375)">
<stop stop-color="#989BEF" stop-opacity="0.78"/>
<stop offset="1" stop-color="white" stop-opacity="0"/>
</radialGradient>
<radialGradient id="paint3_radial_2_2" cx="0" cy="0" r="1" gradientUnits="userSpaceOnUse" gradientTransform="translate(775 751.505) rotate(158.591) scale(869.271 476.797)">
<stop stop-color="#2D74FF"/>
<stop offset="1" stop-color="white" stop-opacity="0"/>
</radialGradient>
<clipPath id="clip0_2_2">
<rect width="1000" height="1330" fill="white"/>
</clipPath>
</defs>
</svg>
