<svg width="1000" height="1330" viewBox="0 0 1000 1330" fill="none" xmlns="http://www.w3.org/2000/svg">
<g clip-path="url(#clip0_1_8)">
<rect width="1007" height="610" fill="#F5F6F7"/>
<rect width="1007" height="610" fill="url(#paint0_radial_1_8)"/>
<rect width="1007" height="610" fill="url(#paint1_radial_1_8)" fill-opacity="0.2"/>
<rect x="244" y="711" width="521" height="482" fill="#F5F6F7"/>
<rect x="244" y="711" width="521" height="482" fill="url(#paint2_radial_1_8)"/>
<rect x="244" y="711" width="521" height="482" fill="url(#paint3_radial_1_8)" fill-opacity="0.5"/>
<path d="M195.249 115.681C195.612 116.362 195.943 117.075 196.242 117.82C196.563 118.544 196.873 119.279 197.172 120.024C197.471 119.257 197.78 118.502 198.101 117.757C198.422 117.011 198.763 116.298 199.126 115.617L212.843 90.0383C213.014 89.719 213.185 89.4635 213.356 89.2719C213.549 89.0803 213.751 88.9419 213.965 88.8568C214.2 88.7716 214.456 88.7184 214.734 88.6971C215.012 88.6758 215.343 88.6651 215.727 88.6651H222.233V134.841H214.638V105.015C214.638 104.462 214.649 103.855 214.67 103.195C214.713 102.535 214.766 101.864 214.83 101.183L200.825 127.369C200.505 127.965 200.088 128.433 199.575 128.774C199.062 129.093 198.464 129.253 197.78 129.253H196.595C195.911 129.253 195.313 129.093 194.8 128.774C194.287 128.433 193.871 127.965 193.55 127.369L179.353 101.087C179.439 101.79 179.492 102.482 179.513 103.163C179.556 103.823 179.577 104.44 179.577 105.015V134.841H171.981V88.6651H178.487C178.872 88.6651 179.203 88.6758 179.481 88.6971C179.758 88.7184 180.004 88.7716 180.218 88.8568C180.453 88.9419 180.667 89.0803 180.859 89.2719C181.051 89.4635 181.233 89.719 181.404 90.0383L195.249 115.681Z" fill="#20252B"/>
<path d="M244.711 101.566C246.784 101.566 248.685 101.896 250.416 102.556C252.168 103.216 253.674 104.185 254.935 105.462C256.195 106.718 257.178 108.272 257.883 110.124C258.588 111.955 258.94 114.052 258.94 116.415C258.94 117.011 258.909 117.512 258.844 117.916C258.802 118.299 258.705 118.608 258.556 118.842C258.428 119.055 258.246 119.215 258.012 119.321C257.776 119.406 257.477 119.449 257.114 119.449H236.795C237.03 122.813 237.938 125.282 239.52 126.858C241.101 128.433 243.195 129.221 245.801 129.221C247.083 129.221 248.183 129.072 249.102 128.774C250.042 128.475 250.854 128.146 251.537 127.784C252.243 127.422 252.852 127.092 253.364 126.794C253.899 126.496 254.411 126.347 254.902 126.347C255.223 126.347 255.501 126.411 255.736 126.538C255.971 126.666 256.174 126.847 256.345 127.081L258.652 129.955C257.776 130.977 256.794 131.839 255.703 132.542C254.614 133.223 253.471 133.776 252.274 134.202C251.099 134.607 249.892 134.894 248.653 135.064C247.435 135.235 246.25 135.32 245.096 135.32C242.81 135.32 240.684 134.947 238.719 134.202C236.753 133.436 235.044 132.318 233.59 130.849C232.138 129.359 230.995 127.528 230.161 125.357C229.328 123.164 228.912 120.631 228.912 117.757C228.912 115.521 229.275 113.424 230.001 111.466C230.727 109.486 231.764 107.772 233.11 106.324C234.477 104.855 236.133 103.695 238.077 102.844C240.043 101.992 242.254 101.566 244.711 101.566ZM244.871 107.218C242.564 107.218 240.758 107.868 239.456 109.166C238.152 110.465 237.319 112.307 236.955 114.691H251.826C251.826 113.669 251.687 112.711 251.409 111.817C251.132 110.901 250.704 110.103 250.127 109.422C249.551 108.741 248.824 108.208 247.948 107.825C247.072 107.421 246.047 107.218 244.871 107.218Z" fill="#20252B"/>
<path d="M265.362 134.841V102.077H270.201C271.227 102.077 271.9 102.556 272.22 103.514L272.733 105.941C273.31 105.302 273.908 104.717 274.528 104.185C275.168 103.653 275.841 103.195 276.547 102.812C277.273 102.428 278.042 102.13 278.854 101.918C279.688 101.683 280.595 101.566 281.578 101.566C283.651 101.566 285.349 102.13 286.674 103.259C288.02 104.366 289.024 105.845 289.686 107.697C290.199 106.612 290.84 105.686 291.609 104.919C292.378 104.132 293.223 103.493 294.141 103.003C295.06 102.514 296.032 102.152 297.057 101.918C298.104 101.683 299.151 101.566 300.198 101.566C302.014 101.566 303.627 101.843 305.038 102.397C306.448 102.95 307.633 103.759 308.595 104.824C309.556 105.888 310.282 107.187 310.774 108.719C311.287 110.252 311.543 112.008 311.543 113.988V134.841H303.627V113.988C303.627 111.902 303.168 110.337 302.249 109.294C301.33 108.23 299.984 107.697 298.211 107.697C297.399 107.697 296.641 107.836 295.935 108.113C295.252 108.389 294.643 108.794 294.109 109.326C293.597 109.837 293.19 110.486 292.891 111.274C292.592 112.062 292.442 112.967 292.442 113.988V134.841H284.494V113.988C284.494 111.796 284.046 110.199 283.148 109.198C282.272 108.198 280.969 107.697 279.239 107.697C278.106 107.697 277.038 107.985 276.033 108.56C275.051 109.113 274.132 109.88 273.277 110.859V134.841H265.362Z" fill="#20252B"/>
<path d="M319.414 134.841V87.3878H327.33V106.101C328.633 104.717 330.108 103.621 331.753 102.812C333.398 101.981 335.321 101.566 337.522 101.566C339.316 101.566 340.951 101.939 342.425 102.684C343.92 103.408 345.202 104.472 346.271 105.877C347.36 107.282 348.193 109.017 348.77 111.082C349.368 113.148 349.667 115.521 349.667 118.204C349.667 120.652 349.337 122.919 348.674 125.005C348.011 127.092 347.061 128.901 345.822 130.434C344.604 131.967 343.119 133.17 341.367 134.043C339.636 134.894 337.692 135.32 335.534 135.32C334.53 135.32 333.611 135.213 332.778 135.001C331.945 134.809 331.186 134.532 330.502 134.17C329.819 133.808 329.178 133.372 328.58 132.861C328.003 132.329 327.447 131.743 326.913 131.105L326.561 133.308C326.433 133.862 326.208 134.255 325.888 134.49C325.589 134.724 325.172 134.841 324.638 134.841H319.414ZM334.797 107.697C333.152 107.697 331.742 108.049 330.567 108.751C329.413 109.433 328.334 110.401 327.33 111.657V126.347C328.227 127.454 329.2 128.231 330.246 128.678C331.315 129.104 332.468 129.316 333.708 129.316C334.904 129.316 335.983 129.093 336.944 128.646C337.905 128.199 338.718 127.518 339.38 126.602C340.064 125.687 340.588 124.537 340.951 123.153C341.314 121.748 341.495 120.098 341.495 118.204C341.495 116.288 341.335 114.67 341.015 113.35C340.716 112.008 340.278 110.923 339.7 110.093C339.124 109.262 338.419 108.655 337.586 108.272C336.774 107.889 335.844 107.697 334.797 107.697Z" fill="#20252B"/>
<path d="M369.461 101.566C371.533 101.566 373.435 101.896 375.166 102.556C376.918 103.216 378.424 104.185 379.684 105.462C380.945 106.718 381.928 108.272 382.633 110.124C383.338 111.955 383.691 114.052 383.691 116.415C383.691 117.011 383.658 117.512 383.594 117.916C383.552 118.299 383.456 118.608 383.306 118.842C383.178 119.055 382.996 119.215 382.761 119.321C382.526 119.406 382.227 119.449 381.864 119.449H361.545C361.781 122.813 362.689 125.282 364.269 126.858C365.85 128.433 367.944 129.221 370.551 129.221C371.833 129.221 372.934 129.072 373.852 128.774C374.792 128.475 375.604 128.146 376.288 127.784C376.992 127.422 377.601 127.092 378.114 126.794C378.648 126.496 379.161 126.347 379.653 126.347C379.973 126.347 380.251 126.411 380.486 126.538C380.72 126.666 380.924 126.847 381.094 127.081L383.403 129.955C382.526 130.977 381.543 131.839 380.454 132.542C379.365 133.223 378.221 133.776 377.025 134.202C375.85 134.607 374.643 134.894 373.403 135.064C372.186 135.235 370.999 135.32 369.846 135.32C367.559 135.32 365.434 134.947 363.468 134.202C361.502 133.436 359.793 132.318 358.341 130.849C356.888 129.359 355.744 127.528 354.912 125.357C354.078 123.164 353.661 120.631 353.661 117.757C353.661 115.521 354.024 113.424 354.751 111.466C355.478 109.486 356.514 107.772 357.86 106.324C359.227 104.855 360.883 103.695 362.828 102.844C364.793 101.992 367.004 101.566 369.461 101.566ZM369.622 107.218C367.314 107.218 365.509 107.868 364.205 109.166C362.902 110.465 362.069 112.307 361.706 114.691H376.576C376.576 113.669 376.437 112.711 376.159 111.817C375.881 110.901 375.454 110.103 374.878 109.422C374.3 108.741 373.574 108.208 372.698 107.825C371.822 107.421 370.796 107.218 369.622 107.218Z" fill="#20252B"/>
<path d="M390.112 134.841V102.077H394.759C395.571 102.077 396.137 102.226 396.457 102.524C396.778 102.822 396.992 103.333 397.098 104.057L397.579 108.017C398.754 105.994 400.132 104.398 401.714 103.227C403.294 102.056 405.068 101.471 407.033 101.471C408.657 101.471 410.003 101.843 411.071 102.588L410.046 108.496C409.982 108.879 409.843 109.156 409.629 109.326C409.416 109.475 409.127 109.55 408.763 109.55C408.444 109.55 408.005 109.475 407.45 109.326C406.894 109.177 406.157 109.103 405.238 109.103C403.593 109.103 402.183 109.56 401.008 110.476C399.833 111.37 398.839 112.69 398.028 114.435V134.841H390.112Z" fill="#20252B"/>
<path d="M416.372 134.841V87.3878H424.288V106.101C425.592 104.717 427.065 103.621 428.711 102.812C430.356 101.981 432.278 101.566 434.479 101.566C436.274 101.566 437.908 101.939 439.382 102.684C440.878 103.408 442.16 104.472 443.229 105.877C444.318 107.282 445.151 109.017 445.729 111.082C446.327 113.148 446.626 115.521 446.626 118.204C446.626 120.652 446.295 122.919 445.632 125.005C444.97 127.092 444.019 128.901 442.78 130.434C441.562 131.967 440.077 133.17 438.326 134.043C436.595 134.894 434.651 135.32 432.493 135.32C431.488 135.32 430.569 135.213 429.736 135.001C428.903 134.809 428.145 134.532 427.461 134.17C426.777 133.808 426.137 133.372 425.538 132.861C424.961 132.329 424.406 131.743 423.872 131.105L423.519 133.308C423.391 133.862 423.166 134.255 422.846 134.49C422.547 134.724 422.13 134.841 421.596 134.841H416.372ZM431.755 107.697C430.11 107.697 428.7 108.049 427.525 108.751C426.371 109.433 425.292 110.401 424.288 111.657V126.347C425.185 127.454 426.157 128.231 427.204 128.678C428.273 129.104 429.427 129.316 430.666 129.316C431.862 129.316 432.941 129.093 433.903 128.646C434.864 128.199 435.676 127.518 436.338 126.602C437.022 125.687 437.545 124.537 437.908 123.153C438.272 121.748 438.454 120.098 438.454 118.204C438.454 116.288 438.293 114.67 437.972 113.35C437.673 112.008 437.235 110.923 436.659 110.093C436.082 109.262 435.377 108.655 434.543 108.272C433.732 107.889 432.802 107.697 431.755 107.697Z" fill="#20252B"/>
<path d="M478.598 134.841H475.04C474.292 134.841 473.705 134.734 473.278 134.522C472.85 134.287 472.53 133.83 472.317 133.148L471.611 130.817C470.778 131.562 469.955 132.222 469.143 132.797C468.353 133.351 467.531 133.819 466.676 134.202C465.821 134.585 464.914 134.873 463.951 135.064C462.99 135.256 461.922 135.352 460.747 135.352C459.358 135.352 458.076 135.171 456.901 134.809C455.726 134.426 454.711 133.862 453.856 133.117C453.024 132.371 452.371 131.445 451.902 130.338C451.432 129.231 451.197 127.943 451.197 126.474C451.197 125.24 451.517 124.026 452.158 122.834C452.82 121.62 453.91 120.535 455.427 119.577C456.944 118.597 458.963 117.788 461.484 117.15C464.005 116.511 467.135 116.149 470.874 116.064V114.148C470.874 111.955 470.404 110.337 469.464 109.294C468.545 108.23 467.199 107.698 465.426 107.698C464.144 107.698 463.076 107.847 462.221 108.145C461.366 108.443 460.619 108.783 459.978 109.166C459.358 109.528 458.782 109.858 458.247 110.156C457.713 110.454 457.126 110.603 456.484 110.603C455.95 110.603 455.491 110.465 455.107 110.188C454.722 109.912 454.412 109.571 454.177 109.166L452.734 106.644C456.517 103.195 461.078 101.471 466.419 101.471C468.343 101.471 470.052 101.79 471.547 102.428C473.064 103.046 474.346 103.919 475.392 105.047C476.439 106.154 477.23 107.485 477.765 109.039C478.32 110.593 478.598 112.296 478.598 114.148V134.841ZM463.214 129.923C464.026 129.923 464.774 129.849 465.458 129.7C466.142 129.551 466.783 129.327 467.381 129.029C468 128.731 468.588 128.369 469.143 127.943C469.72 127.496 470.298 126.975 470.874 126.379V120.854C468.567 120.961 466.633 121.163 465.073 121.461C463.535 121.738 462.296 122.099 461.356 122.547C460.416 122.994 459.743 123.515 459.337 124.111C458.952 124.707 458.76 125.357 458.76 126.059C458.76 127.443 459.165 128.433 459.978 129.029C460.811 129.625 461.89 129.923 463.214 129.923Z" fill="#20252B"/>
<path d="M505.899 108.464C505.685 108.804 505.461 109.049 505.226 109.198C504.991 109.326 504.692 109.39 504.328 109.39C503.944 109.39 503.528 109.284 503.079 109.071C502.651 108.858 502.149 108.624 501.572 108.368C500.996 108.091 500.333 107.847 499.585 107.634C498.859 107.421 497.994 107.314 496.989 107.314C495.43 107.314 494.201 107.644 493.304 108.304C492.406 108.964 491.958 109.826 491.958 110.891C491.958 111.593 492.182 112.189 492.631 112.679C493.101 113.148 493.71 113.563 494.458 113.924C495.227 114.286 496.092 114.616 497.053 114.914C498.015 115.191 498.998 115.5 500.002 115.841C501.006 116.181 501.989 116.575 502.95 117.022C503.912 117.448 504.766 118.001 505.514 118.683C506.284 119.343 506.893 120.141 507.341 121.078C507.811 122.014 508.046 123.143 508.046 124.463C508.046 126.038 507.758 127.496 507.181 128.837C506.604 130.157 505.76 131.307 504.649 132.286C503.538 133.244 502.16 134 500.515 134.554C498.891 135.086 497.022 135.352 494.906 135.352C493.774 135.352 492.663 135.245 491.574 135.032C490.505 134.841 489.469 134.564 488.465 134.202C487.482 133.84 486.564 133.415 485.709 132.925C484.875 132.435 484.138 131.903 483.498 131.328L485.324 128.326C485.559 127.965 485.836 127.688 486.157 127.496C486.478 127.305 486.883 127.209 487.375 127.209C487.866 127.209 488.326 127.347 488.753 127.624C489.201 127.901 489.714 128.199 490.292 128.518C490.868 128.837 491.541 129.135 492.311 129.412C493.101 129.689 494.095 129.827 495.291 129.827C496.231 129.827 497.033 129.721 497.695 129.508C498.379 129.274 498.934 128.976 499.361 128.614C499.809 128.252 500.13 127.837 500.323 127.368C500.536 126.879 500.643 126.379 500.643 125.868C500.643 125.101 500.408 124.473 499.938 123.984C499.489 123.494 498.88 123.068 498.111 122.706C497.363 122.344 496.498 122.025 495.515 121.748C494.554 121.45 493.56 121.131 492.535 120.79C491.53 120.45 490.537 120.056 489.555 119.609C488.592 119.14 487.728 118.555 486.958 117.852C486.21 117.15 485.601 116.288 485.132 115.266C484.683 114.244 484.459 113.009 484.459 111.561C484.459 110.22 484.726 108.943 485.26 107.729C485.794 106.516 486.573 105.462 487.6 104.568C488.647 103.653 489.938 102.929 491.477 102.397C493.037 101.843 494.832 101.566 496.861 101.566C499.126 101.566 501.188 101.939 503.046 102.684C504.905 103.429 506.455 104.408 507.694 105.622L505.899 108.464Z" fill="#20252B"/>
<path d="M527.95 101.566C530.022 101.566 531.924 101.896 533.655 102.556C535.406 103.216 536.912 104.185 538.173 105.462C539.433 106.718 540.416 108.272 541.122 110.124C541.826 111.955 542.179 114.052 542.179 116.415C542.179 117.011 542.147 117.512 542.083 117.916C542.04 118.299 541.944 118.608 541.795 118.842C541.666 119.055 541.485 119.215 541.25 119.321C541.014 119.406 540.715 119.449 540.352 119.449H520.034C520.269 122.813 521.176 125.282 522.757 126.858C524.339 128.433 526.432 129.221 529.039 129.221C530.321 129.221 531.421 129.072 532.34 128.774C533.281 128.475 534.092 128.146 534.776 127.784C535.481 127.422 536.09 127.092 536.602 126.794C537.137 126.496 537.649 126.347 538.141 126.347C538.461 126.347 538.739 126.411 538.974 126.538C539.209 126.666 539.412 126.847 539.583 127.081L541.89 129.955C541.014 130.977 540.031 131.839 538.942 132.542C537.852 133.223 536.71 133.776 535.513 134.202C534.337 134.607 533.131 134.894 531.891 135.064C530.673 135.235 529.488 135.32 528.334 135.32C526.048 135.32 523.922 134.947 521.957 134.202C519.991 133.436 518.282 132.318 516.829 130.849C515.376 129.359 514.233 127.528 513.399 125.357C512.567 123.164 512.15 120.631 512.15 117.757C512.15 115.521 512.513 113.424 513.24 111.466C513.966 109.486 515.002 107.772 516.348 106.324C517.716 104.855 519.372 103.695 521.316 102.844C523.281 101.992 525.493 101.566 527.95 101.566ZM528.11 107.218C525.803 107.218 523.997 107.868 522.694 109.166C521.391 110.465 520.557 112.307 520.194 114.691H535.065C535.065 113.669 534.926 112.711 534.647 111.817C534.37 110.901 533.943 110.103 533.365 109.422C532.789 108.741 532.063 108.208 531.187 107.825C530.31 107.421 529.285 107.218 528.11 107.218Z" fill="#20252B"/>
<path d="M95.0265 106.172L70 133.538L138.699 150.037C143.199 151.118 146.891 146.431 144.77 142.332L131.565 116.814L144.178 79.2108L86.7318 72.3275C82.406 71.8092 79.2737 76.3416 81.3025 80.1836L95.0265 106.172Z" fill="#20252B"/>
<path d="M115.54 340.126C115.015 338.426 114.291 336.905 113.368 335.562C112.466 334.198 111.375 333.034 110.095 332.068C108.836 331.103 107.388 330.379 105.751 329.897C104.115 329.393 102.331 329.141 100.401 329.141C96.9387 329.141 93.8543 330.012 91.1475 331.754C88.4408 333.495 86.3111 336.055 84.7584 339.433C83.2266 342.79 82.4608 346.882 82.4608 351.708C82.4608 356.576 83.2266 360.699 84.7584 364.077C86.2901 367.455 88.4198 370.026 91.1475 371.788C93.8753 373.53 97.0436 374.401 100.653 374.401C103.926 374.401 106.759 373.771 109.151 372.512C111.564 371.253 113.42 369.47 114.721 367.162C116.022 364.832 116.673 362.105 116.673 358.978L119.317 359.388H101.817V350.26H127.972V358.003C127.972 363.521 126.797 368.295 124.447 372.323C122.097 376.352 118.865 379.457 114.753 381.639C110.64 383.801 105.919 384.881 100.59 384.881C94.6516 384.881 89.4375 383.549 84.9472 380.884C80.4779 378.198 76.9843 374.39 74.4664 369.459C71.9695 364.507 70.7211 358.632 70.7211 351.834C70.7211 346.63 71.4555 341.983 72.9242 337.891C74.414 333.799 76.4913 330.327 79.156 327.473C81.8208 324.599 84.9472 322.416 88.5352 320.927C92.1232 319.416 96.026 318.66 100.243 318.66C103.81 318.66 107.136 319.185 110.221 320.234C113.305 321.262 116.043 322.731 118.435 324.641C120.848 326.55 122.831 328.816 124.384 331.439C125.937 334.062 126.954 336.957 127.437 340.126H115.54ZM138.759 384V335.656H149.807V343.714H150.31C151.192 340.923 152.702 338.772 154.843 337.261C157.004 335.73 159.469 334.964 162.239 334.964C162.868 334.964 163.571 334.995 164.348 335.058C165.145 335.1 165.806 335.174 166.33 335.279V345.759C165.848 345.592 165.082 345.445 164.033 345.319C163.005 345.172 162.008 345.098 161.043 345.098C158.966 345.098 157.098 345.55 155.441 346.452C153.804 347.333 152.513 348.561 151.569 350.134C150.625 351.708 150.153 353.523 150.153 355.579V384H138.759ZM173.9 384V335.656H185.293V384H173.9ZM179.628 328.795C177.824 328.795 176.271 328.197 174.97 327.001C173.669 325.784 173.019 324.326 173.019 322.626C173.019 320.906 173.669 319.447 174.97 318.251C176.271 317.034 177.824 316.426 179.628 316.426C181.454 316.426 183.006 317.034 184.286 318.251C185.587 319.447 186.238 320.906 186.238 322.626C186.238 324.326 185.587 325.784 184.286 327.001C183.006 328.197 181.454 328.795 179.628 328.795ZM214.95 384.85C211.152 384.85 207.753 383.874 204.752 381.923C201.752 379.971 199.381 377.139 197.639 373.425C195.897 369.711 195.027 365.2 195.027 359.891C195.027 354.52 195.908 349.987 197.67 346.294C199.454 342.581 201.856 339.779 204.878 337.891C207.899 335.982 211.267 335.027 214.981 335.027C217.814 335.027 220.143 335.509 221.968 336.475C223.794 337.419 225.241 338.562 226.312 339.905C227.382 341.227 228.21 342.476 228.798 343.651H229.27V319.542H240.695V384H229.49V376.383H228.798C228.21 377.558 227.361 378.807 226.249 380.129C225.137 381.43 223.668 382.542 221.842 383.465C220.017 384.388 217.719 384.85 214.95 384.85ZM218.128 375.502C220.541 375.502 222.598 374.852 224.297 373.551C225.997 372.229 227.287 370.393 228.169 368.043C229.05 365.693 229.49 362.955 229.49 359.828C229.49 356.702 229.05 353.985 228.169 351.676C227.308 349.368 226.028 347.574 224.329 346.294C222.65 345.015 220.583 344.375 218.128 344.375C215.59 344.375 213.47 345.035 211.771 346.357C210.071 347.679 208.791 349.505 207.931 351.834C207.071 354.163 206.64 356.828 206.64 359.828C206.64 362.85 207.071 365.546 207.931 367.917C208.812 370.267 210.103 372.124 211.802 373.488C213.523 374.831 215.631 375.502 218.128 375.502ZM291.045 348.435L280.659 349.568C280.365 348.519 279.851 347.532 279.117 346.609C278.403 345.686 277.438 344.941 276.221 344.375C275.004 343.808 273.514 343.525 271.752 343.525C269.381 343.525 267.387 344.039 265.772 345.067C264.177 346.095 263.39 347.427 263.411 349.064C263.39 350.47 263.904 351.614 264.953 352.495C266.024 353.376 267.786 354.1 270.241 354.666L278.487 356.429C283.061 357.415 286.461 358.978 288.685 361.119C290.93 363.259 292.063 366.06 292.084 369.522C292.063 372.565 291.171 375.25 289.409 377.579C287.667 379.887 285.244 381.692 282.138 382.993C279.033 384.294 275.466 384.944 271.437 384.944C265.52 384.944 260.757 383.706 257.148 381.23C253.539 378.733 251.388 375.261 250.696 370.812L261.806 369.742C262.31 371.925 263.38 373.572 265.016 374.684C266.653 375.796 268.783 376.352 271.406 376.352C274.112 376.352 276.284 375.796 277.921 374.684C279.578 373.572 280.407 372.197 280.407 370.561C280.407 369.176 279.872 368.032 278.802 367.13C277.753 366.228 276.116 365.535 273.892 365.053L265.646 363.322C261.009 362.357 257.578 360.73 255.354 358.443C253.13 356.135 252.028 353.219 252.049 349.694C252.028 346.714 252.836 344.133 254.473 341.951C256.13 339.748 258.428 338.048 261.365 336.852C264.324 335.635 267.734 335.027 271.594 335.027C277.26 335.027 281.718 336.233 284.971 338.646C288.244 341.059 290.269 344.322 291.045 348.435ZM342.725 384.944C338.319 384.944 334.531 384.147 331.363 382.552C328.195 380.958 325.75 378.807 324.03 376.1C322.33 373.372 321.48 370.298 321.48 366.878C321.48 364.297 322.005 362.01 323.054 360.017C324.124 358.024 325.593 356.177 327.46 354.478C329.349 352.778 331.531 351.089 334.007 349.41L345.432 341.636C347.11 340.545 348.38 339.391 349.24 338.174C350.121 336.957 350.562 335.53 350.562 333.894C350.562 332.509 349.975 331.198 348.8 329.96C347.646 328.722 346.051 328.103 344.016 328.103C342.652 328.103 341.445 328.428 340.396 329.078C339.368 329.708 338.56 330.537 337.973 331.565C337.406 332.593 337.123 333.684 337.123 334.838C337.123 336.244 337.511 337.671 338.287 339.118C339.085 340.566 340.113 342.066 341.372 343.619C342.652 345.172 344.016 346.819 345.463 348.561L375.71 384H363.372L338.256 355.233C336.388 353.051 334.584 350.9 332.842 348.781C331.122 346.662 329.705 344.458 328.593 342.171C327.502 339.863 326.957 337.366 326.957 334.681C326.957 331.638 327.66 328.921 329.066 326.529C330.471 324.116 332.433 322.217 334.951 320.832C337.49 319.447 340.459 318.755 343.858 318.755C347.257 318.755 350.174 319.426 352.608 320.769C355.042 322.112 356.92 323.896 358.242 326.12C359.564 328.344 360.225 330.767 360.225 333.39C360.225 336.433 359.469 339.16 357.958 341.573C356.448 343.965 354.349 346.137 351.664 348.088L338.634 357.625C336.493 359.178 334.962 360.751 334.038 362.346C333.115 363.92 332.654 365.263 332.654 366.375C332.654 368.074 333.084 369.616 333.944 371.001C334.804 372.386 336.011 373.498 337.563 374.338C339.137 375.156 340.973 375.565 343.071 375.565C345.379 375.565 347.656 375.051 349.901 374.023C352.146 372.974 354.192 371.484 356.039 369.554C357.885 367.623 359.354 365.315 360.445 362.629C361.536 359.923 362.081 356.922 362.081 353.628H371.87C371.87 357.698 371.419 361.244 370.516 364.266C369.614 367.266 368.45 369.805 367.023 371.883C365.596 373.939 364.085 375.586 362.491 376.824C361.987 377.181 361.504 377.537 361.043 377.894C360.581 378.251 360.099 378.607 359.595 378.964C357.329 381.02 354.675 382.531 351.632 383.496C348.611 384.462 345.642 384.944 342.725 384.944ZM80.6353 491H68.1717L90.8643 426.542H105.279L128.003 491H115.54L98.3235 439.761H97.82L80.6353 491ZM81.0445 465.727H115.036V475.106H81.0445V465.727ZM147.383 426.542V491H135.99V426.542H147.383ZM159.099 491V442.656H170.493V491H159.099ZM164.828 435.795C163.023 435.795 161.47 435.197 160.169 434.001C158.869 432.784 158.218 431.326 158.218 429.626C158.218 427.906 158.869 426.447 160.169 425.251C161.47 424.034 163.023 423.426 164.828 423.426C166.653 423.426 168.206 424.034 169.486 425.251C170.787 426.447 171.437 427.906 171.437 429.626C171.437 431.326 170.787 432.784 169.486 434.001C168.206 435.197 166.653 435.795 164.828 435.795ZM203.233 510.136C199.142 510.136 195.627 509.58 192.69 508.468C189.752 507.377 187.392 505.908 185.608 504.062C183.825 502.215 182.587 500.169 181.894 497.924L192.155 495.438C192.616 496.382 193.288 497.316 194.169 498.239C195.05 499.183 196.236 499.96 197.726 500.568C199.236 501.197 201.135 501.512 203.422 501.512C206.654 501.512 209.329 500.725 211.448 499.152C213.567 497.599 214.627 495.039 214.627 491.472V482.313H214.06C213.473 483.488 212.613 484.695 211.48 485.933C210.367 487.171 208.888 488.209 207.042 489.049C205.216 489.888 202.919 490.308 200.149 490.308C196.435 490.308 193.067 489.437 190.046 487.695C187.045 485.933 184.653 483.31 182.87 479.827C181.107 476.323 180.226 471.937 180.226 466.671C180.226 461.362 181.107 456.882 182.87 453.231C184.653 449.56 187.056 446.779 190.077 444.891C193.099 442.982 196.467 442.027 200.18 442.027C203.013 442.027 205.342 442.509 207.168 443.475C209.014 444.419 210.483 445.562 211.574 446.905C212.665 448.227 213.494 449.476 214.06 450.651H214.69V442.656H225.926V491.787C225.926 495.92 224.94 499.341 222.967 502.047C220.995 504.754 218.299 506.779 214.879 508.122C211.459 509.465 207.577 510.136 203.233 510.136ZM203.328 481.369C205.741 481.369 207.797 480.782 209.497 479.607C211.196 478.431 212.487 476.742 213.368 474.539C214.249 472.336 214.69 469.692 214.69 466.608C214.69 463.565 214.249 460.901 213.368 458.614C212.508 456.326 211.228 454.553 209.528 453.294C207.85 452.015 205.783 451.375 203.328 451.375C200.789 451.375 198.67 452.035 196.97 453.357C195.271 454.679 193.991 456.494 193.13 458.802C192.27 461.089 191.84 463.691 191.84 466.608C191.84 469.566 192.27 472.158 193.13 474.382C194.012 476.585 195.302 478.306 197.002 479.544C198.722 480.761 200.831 481.369 203.328 481.369ZM248.996 462.674V491H237.603V442.656H248.493V450.871H249.059C250.171 448.164 251.944 446.014 254.378 444.419C256.833 442.824 259.865 442.027 263.474 442.027C266.81 442.027 269.716 442.74 272.192 444.167C274.689 445.594 276.62 447.661 277.984 450.367C279.368 453.074 280.05 456.358 280.029 460.219V491H268.636V461.981C268.636 458.75 267.797 456.222 266.118 454.396C264.46 452.571 262.163 451.658 259.225 451.658C257.232 451.658 255.459 452.098 253.906 452.98C252.374 453.84 251.168 455.088 250.287 456.725C249.426 458.362 248.996 460.345 248.996 462.674ZM291.612 491V442.656H302.502V450.871H303.068C304.075 448.101 305.743 445.94 308.073 444.387C310.402 442.814 313.182 442.027 316.413 442.027C319.686 442.027 322.446 442.824 324.691 444.419C326.957 445.993 328.551 448.143 329.475 450.871H329.978C331.048 448.185 332.853 446.045 335.392 444.45C337.952 442.835 340.984 442.027 344.488 442.027C348.936 442.027 352.566 443.433 355.378 446.244C358.189 449.056 359.595 453.158 359.595 458.551V491H348.17V460.313C348.17 457.313 347.373 455.12 345.778 453.735C344.183 452.329 342.232 451.626 339.924 451.626C337.175 451.626 335.025 452.487 333.472 454.207C331.94 455.907 331.174 458.12 331.174 460.848V491H320.001V459.841C320.001 457.344 319.246 455.351 317.735 453.861C316.245 452.371 314.294 451.626 311.881 451.626C310.244 451.626 308.754 452.046 307.412 452.885C306.069 453.704 304.999 454.868 304.201 456.379C303.404 457.869 303.005 459.61 303.005 461.604V491H291.612ZM392.556 491.944C387.709 491.944 383.523 490.937 379.998 488.923C376.494 486.887 373.798 484.013 371.909 480.299C370.021 476.564 369.077 472.168 369.077 467.111C369.077 462.139 370.021 457.774 371.909 454.018C373.819 450.241 376.483 447.304 379.903 445.206C383.324 443.086 387.342 442.027 391.958 442.027C394.937 442.027 397.749 442.509 400.393 443.475C403.058 444.419 405.408 445.888 407.443 447.881C409.499 449.874 411.115 452.413 412.29 455.498C413.465 458.561 414.052 462.212 414.052 466.45V469.944H374.427V462.264H403.131C403.11 460.082 402.638 458.141 401.715 456.442C400.792 454.721 399.501 453.368 397.844 452.382C396.207 451.396 394.297 450.902 392.115 450.902C389.786 450.902 387.74 451.469 385.978 452.602C384.215 453.714 382.841 455.183 381.855 457.008C380.89 458.813 380.397 460.796 380.376 462.957V469.661C380.376 472.472 380.89 474.885 381.918 476.9C382.946 478.893 384.383 480.425 386.23 481.495C388.076 482.544 390.237 483.069 392.713 483.069C394.371 483.069 395.871 482.838 397.214 482.376C398.557 481.894 399.721 481.191 400.708 480.267C401.694 479.344 402.439 478.201 402.942 476.837L413.58 478.033C412.909 480.844 411.629 483.299 409.741 485.398C407.873 487.475 405.481 489.091 402.565 490.245C399.648 491.378 396.312 491.944 392.556 491.944ZM435.085 462.674V491H423.691V442.656H434.581V450.871H435.148C436.26 448.164 438.033 446.014 440.467 444.419C442.922 442.824 445.954 442.027 449.563 442.027C452.899 442.027 455.805 442.74 458.281 444.167C460.778 445.594 462.708 447.661 464.072 450.367C465.457 453.074 466.139 456.358 466.118 460.219V491H454.724V461.981C454.724 458.75 453.885 456.222 452.207 454.396C450.549 452.571 448.251 451.658 445.314 451.658C443.32 451.658 441.547 452.098 439.995 452.98C438.463 453.84 437.257 455.088 436.375 456.725C435.515 458.362 435.085 460.345 435.085 462.674ZM501.841 442.656V451.469H474.049V442.656H501.841ZM480.911 431.074H492.304V476.459C492.304 477.991 492.535 479.166 492.997 479.984C493.479 480.782 494.109 481.327 494.885 481.621C495.661 481.915 496.522 482.061 497.466 482.061C498.179 482.061 498.83 482.009 499.417 481.904C500.026 481.799 500.487 481.705 500.802 481.621L502.722 490.528C502.113 490.738 501.243 490.969 500.11 491.22C498.998 491.472 497.634 491.619 496.018 491.661C493.164 491.745 490.594 491.315 488.307 490.371C486.02 489.405 484.205 487.916 482.862 485.901C481.54 483.887 480.89 481.369 480.911 478.348V431.074Z" fill="black"/>
<path fill-rule="evenodd" clip-rule="evenodd" d="M0 574H1007V1330H0V574ZM566 974.582V990.692C566 997.302 563.366 1003.64 558.678 1008.32C554.718 1012.26 549.567 1014.75 544.068 1015.43C542.84 1018.9 540.858 1022.1 538.221 1024.77L493.044 1069.92C490.716 1072.27 487.946 1074.13 484.893 1075.4C481.84 1076.68 478.564 1077.33 475.256 1077.33C471.948 1077.33 468.672 1076.68 465.619 1075.4C462.566 1074.13 459.796 1072.27 457.468 1069.92L428.493 1040.96C428.385 1044.11 427.082 1047.11 424.839 1049.35C422.495 1051.69 419.315 1053 416 1053C412.685 1053 409.505 1051.69 407.161 1049.35C404.817 1047.01 403.5 1043.84 403.5 1040.54V1015.62H291C284.37 1015.62 278.011 1012.99 273.322 1008.32C268.634 1003.64 266 997.302 266 990.692V928.385C266 921.775 268.634 915.435 273.322 910.761C278.011 906.087 284.37 903.462 291 903.462H403.5V878.538H328.5C321.87 878.538 315.511 875.913 310.822 871.239C306.134 866.565 303.5 860.225 303.5 853.615V791.308C303.5 784.698 306.134 778.358 310.822 773.684C315.511 769.01 321.87 766.385 328.5 766.385H403.5V741.462C403.5 738.157 404.817 734.987 407.161 732.65C409.505 730.313 412.685 729 416 729C419.315 729 422.495 730.313 424.839 732.65C427.183 734.987 428.5 738.157 428.5 741.462V766.385H503.5C510.13 766.385 516.489 769.01 521.178 773.684C525.866 778.358 528.5 784.698 528.5 791.308V853.615C528.5 860.225 525.866 866.565 521.178 871.239C516.489 875.913 510.13 878.538 503.5 878.538H428.5V903.462H505.907C506.546 897.865 509.04 892.61 513.035 888.558L558.212 843.415C560.54 841.066 563.31 839.201 566.363 837.928C569.416 836.655 572.692 836 576 836C579.308 836 582.584 836.655 585.637 837.928C588.69 839.201 591.46 841.066 593.788 843.415L638.965 888.558C643.637 893.296 646.256 899.681 646.256 906.332C646.256 912.984 643.637 919.369 638.965 924.107L593.788 969.25C591.46 971.599 588.69 973.464 585.637 974.737C582.584 976.01 579.308 976.665 576 976.665C572.692 976.665 569.416 976.01 566.363 974.737C566.242 974.686 566.121 974.635 566 974.582ZM694.532 944.083L739.709 989.226C744.381 993.964 747 1000.35 747 1007C747 1013.65 744.381 1020.04 739.709 1024.77L694.532 1069.92C692.204 1072.27 689.434 1074.13 686.381 1075.4C683.328 1076.68 680.052 1077.33 676.744 1077.33C673.436 1077.33 670.16 1076.68 667.107 1075.4C664.054 1074.13 661.284 1072.27 658.956 1069.92L613.779 1024.77C609.107 1020.04 606.488 1013.65 606.488 1007C606.488 1000.35 609.107 993.964 613.779 989.226L658.956 944.083C661.284 941.733 664.054 939.868 667.107 938.596C670.16 937.323 673.436 936.668 676.744 936.668C680.052 936.668 683.328 937.323 686.381 938.596C689.434 939.868 692.204 941.733 694.532 944.083ZM585.637 1039.26C588.69 1040.54 591.46 1042.4 593.788 1044.75L638.965 1089.89C643.637 1094.63 646.256 1101.02 646.256 1107.67C646.256 1114.32 643.637 1120.7 638.965 1125.44L593.788 1170.58C591.46 1172.93 588.69 1174.8 585.637 1176.07C582.584 1177.34 579.308 1178 576 1178C572.692 1178 569.416 1177.34 566.363 1176.07C563.31 1174.8 560.54 1172.93 558.212 1170.58L513.035 1125.44C508.363 1120.7 505.744 1114.32 505.744 1107.67C505.744 1101.02 508.363 1094.63 513.035 1089.89L558.212 1044.75C560.54 1042.4 563.31 1040.54 566.363 1039.26C569.416 1037.99 572.692 1037.34 576 1037.34C579.308 1037.34 582.584 1037.99 585.637 1039.26Z" fill="#20252B"/>
<path fill-rule="evenodd" clip-rule="evenodd" d="M566 974.582V928.385C566 921.775 563.366 915.435 558.678 910.761C553.989 906.087 547.63 903.462 541 903.462H505.907C505.799 904.41 505.744 905.368 505.744 906.332C505.744 912.984 508.363 919.369 513.035 924.107L558.212 969.25C560.447 971.506 563.09 973.315 566 974.582ZM544.068 1015.43C545.015 1012.74 545.512 1009.9 545.512 1007C545.512 1000.35 542.893 993.964 538.221 989.226L493.044 944.083C490.716 941.733 487.946 939.868 484.893 938.596C481.84 937.323 478.564 936.668 475.256 936.668C471.948 936.668 468.672 937.323 465.619 938.596C462.566 939.868 459.796 941.733 457.468 944.083L412.291 989.226C407.619 993.964 405 1000.35 405 1007C405 1013.65 407.619 1020.04 412.291 1024.77L428.493 1040.96C428.498 1040.82 428.5 1040.68 428.5 1040.54V1015.62H541C542.031 1015.62 543.055 1015.55 544.068 1015.43Z" fill="#20252B"/>
</g>
<defs>
<radialGradient id="paint0_radial_1_8" cx="0" cy="0" r="1" gradientUnits="userSpaceOnUse" gradientTransform="translate(-106 489.147) rotate(2.25551) scale(1509.17 523.573)">
<stop stop-color="#EF98CF" stop-opacity="0.19"/>
<stop offset="1" stop-color="white" stop-opacity="0"/>
</radialGradient>
<radialGradient id="paint1_radial_1_8" cx="0" cy="0" r="1" gradientUnits="userSpaceOnUse" gradientTransform="translate(1007 44.2595) rotate(162.272) scale(1418.88 664.213)">
<stop stop-color="#FF837A"/>
<stop offset="1" stop-color="white" stop-opacity="0"/>
</radialGradient>
<radialGradient id="paint2_radial_1_8" cx="0" cy="0" r="1" gradientUnits="userSpaceOnUse" gradientTransform="translate(189.158 1097.51) rotate(3.44235) scale(781.617 413.282)">
<stop stop-color="#EF98CF" stop-opacity="0.48"/>
<stop offset="1" stop-color="white" stop-opacity="0"/>
</radialGradient>
<radialGradient id="paint3_radial_1_8" cx="0" cy="0" r="1" gradientUnits="userSpaceOnUse" gradientTransform="translate(765 745.972) rotate(153.977) scale(778.124 495.141)">
<stop stop-color="#FF837A"/>
<stop offset="1" stop-color="white" stop-opacity="0"/>
</radialGradient>
<clipPath id="clip0_1_8">
<rect width="1000" height="1330" fill="white"/>
</clipPath>
</defs>
</svg>
