<svg width="1000" height="1330" viewBox="0 0 1000 1330" fill="none" xmlns="http://www.w3.org/2000/svg">
<g clip-path="url(#clip0_1_106)">
<rect width="1007" height="610" fill="#F5F6F7"/>
<rect width="1007" height="610" fill="url(#paint0_radial_1_106)"/>
<rect width="1007" height="610" fill="url(#paint1_radial_1_106)" fill-opacity="0.2"/>
<rect x="198" y="711" width="577" height="482" fill="#F5F6F7"/>
<rect x="198" y="711" width="577" height="482" fill="url(#paint2_radial_1_106)"/>
<rect x="198" y="711" width="577" height="482" fill="url(#paint3_radial_1_106)" fill-opacity="0.6"/>
<path d="M195.249 115.681C195.612 116.362 195.943 117.075 196.242 117.82C196.563 118.544 196.873 119.279 197.172 120.024C197.471 119.257 197.78 118.502 198.101 117.757C198.422 117.011 198.763 116.298 199.126 115.617L212.843 90.0383C213.014 89.719 213.185 89.4635 213.356 89.2719C213.549 89.0803 213.751 88.9419 213.965 88.8568C214.2 88.7716 214.456 88.7184 214.734 88.6971C215.012 88.6758 215.343 88.6651 215.727 88.6651H222.233V134.841H214.638V105.015C214.638 104.462 214.649 103.855 214.67 103.195C214.713 102.535 214.766 101.864 214.83 101.183L200.825 127.369C200.505 127.965 200.089 128.433 199.575 128.774C199.062 129.093 198.464 129.253 197.78 129.253H196.595C195.911 129.253 195.313 129.093 194.8 128.774C194.287 128.433 193.871 127.965 193.55 127.369L179.353 101.087C179.439 101.79 179.492 102.482 179.513 103.163C179.556 103.823 179.577 104.44 179.577 105.015V134.841H171.982V88.6651H178.487C178.872 88.6651 179.204 88.6758 179.481 88.6971C179.759 88.7184 180.004 88.7716 180.218 88.8568C180.453 88.9419 180.667 89.0803 180.859 89.2719C181.051 89.4635 181.233 89.719 181.404 90.0383L195.249 115.681Z" fill="#20252B"/>
<path d="M244.711 101.566C246.784 101.566 248.685 101.896 250.416 102.556C252.168 103.216 253.674 104.185 254.935 105.462C256.195 106.718 257.178 108.272 257.883 110.124C258.588 111.955 258.941 114.052 258.941 116.415C258.941 117.011 258.909 117.512 258.844 117.916C258.802 118.299 258.705 118.608 258.556 118.842C258.428 119.055 258.246 119.215 258.012 119.321C257.777 119.406 257.477 119.449 257.114 119.449H236.795C237.03 122.813 237.938 125.282 239.52 126.858C241.101 128.433 243.195 129.221 245.801 129.221C247.083 129.221 248.183 129.072 249.102 128.774C250.042 128.475 250.854 128.146 251.537 127.784C252.243 127.422 252.852 127.092 253.365 126.794C253.899 126.496 254.411 126.347 254.902 126.347C255.223 126.347 255.501 126.411 255.736 126.538C255.971 126.666 256.174 126.847 256.345 127.081L258.652 129.955C257.777 130.977 256.794 131.839 255.703 132.542C254.614 133.223 253.471 133.776 252.274 134.202C251.1 134.607 249.892 134.894 248.653 135.064C247.435 135.235 246.25 135.32 245.096 135.32C242.81 135.32 240.684 134.947 238.719 134.202C236.753 133.436 235.044 132.318 233.59 130.849C232.138 129.359 230.995 127.528 230.161 125.357C229.328 123.164 228.912 120.631 228.912 117.757C228.912 115.521 229.275 113.424 230.001 111.466C230.727 109.486 231.764 107.772 233.11 106.324C234.477 104.855 236.133 103.695 238.077 102.844C240.043 101.992 242.254 101.566 244.711 101.566ZM244.871 107.218C242.564 107.218 240.758 107.868 239.456 109.166C238.152 110.465 237.319 112.307 236.956 114.691H251.826C251.826 113.669 251.687 112.711 251.409 111.817C251.132 110.901 250.704 110.103 250.127 109.422C249.551 108.741 248.824 108.208 247.948 107.825C247.072 107.421 246.047 107.218 244.871 107.218Z" fill="#20252B"/>
<path d="M265.362 134.841V102.077H270.201C271.227 102.077 271.9 102.556 272.22 103.514L272.733 105.941C273.31 105.302 273.908 104.717 274.528 104.185C275.168 103.653 275.842 103.195 276.547 102.812C277.273 102.428 278.043 102.13 278.854 101.918C279.688 101.683 280.595 101.566 281.578 101.566C283.651 101.566 285.349 102.13 286.674 103.259C288.02 104.366 289.024 105.845 289.686 107.697C290.199 106.612 290.84 105.686 291.609 104.919C292.378 104.132 293.223 103.493 294.141 103.003C295.06 102.514 296.032 102.152 297.057 101.918C298.104 101.683 299.151 101.566 300.198 101.566C302.014 101.566 303.627 101.843 305.038 102.397C306.448 102.95 307.633 103.759 308.595 104.824C309.556 105.888 310.282 107.187 310.774 108.719C311.287 110.252 311.544 112.008 311.544 113.988V134.841H303.627V113.988C303.627 111.902 303.168 110.337 302.249 109.294C301.33 108.23 299.984 107.697 298.211 107.697C297.399 107.697 296.641 107.836 295.935 108.113C295.252 108.389 294.643 108.794 294.109 109.326C293.597 109.837 293.19 110.486 292.891 111.274C292.592 112.062 292.442 112.967 292.442 113.988V134.841H284.494V113.988C284.494 111.796 284.046 110.199 283.148 109.198C282.273 108.198 280.969 107.697 279.239 107.697C278.107 107.697 277.038 107.985 276.033 108.56C275.051 109.113 274.132 109.88 273.277 110.859V134.841H265.362Z" fill="#20252B"/>
<path d="M319.414 134.841V87.3878H327.33V106.101C328.633 104.717 330.108 103.621 331.753 102.812C333.398 101.981 335.321 101.566 337.522 101.566C339.316 101.566 340.951 101.939 342.425 102.684C343.92 103.408 345.202 104.472 346.271 105.877C347.36 107.282 348.193 109.017 348.77 111.082C349.368 113.148 349.667 115.521 349.667 118.204C349.667 120.652 349.337 122.919 348.674 125.005C348.011 127.092 347.061 128.901 345.822 130.434C344.604 131.967 343.119 133.17 341.367 134.043C339.636 134.894 337.692 135.32 335.534 135.32C334.53 135.32 333.611 135.213 332.778 135.001C331.945 134.809 331.186 134.532 330.502 134.17C329.819 133.808 329.178 133.372 328.58 132.861C328.003 132.329 327.447 131.743 326.913 131.105L326.561 133.308C326.433 133.862 326.208 134.255 325.888 134.49C325.588 134.724 325.172 134.841 324.638 134.841H319.414ZM334.797 107.697C333.152 107.697 331.742 108.049 330.567 108.751C329.413 109.433 328.334 110.401 327.33 111.657V126.347C328.227 127.454 329.199 128.231 330.246 128.678C331.315 129.104 332.468 129.316 333.708 129.316C334.904 129.316 335.983 129.093 336.944 128.646C337.905 128.199 338.718 127.518 339.38 126.602C340.064 125.687 340.588 124.537 340.951 123.153C341.314 121.748 341.495 120.098 341.495 118.204C341.495 116.288 341.335 114.67 341.015 113.35C340.715 112.008 340.278 110.923 339.7 110.093C339.123 109.262 338.419 108.655 337.586 108.272C336.774 107.889 335.844 107.697 334.797 107.697Z" fill="#20252B"/>
<path d="M369.461 101.566C371.533 101.566 373.435 101.896 375.166 102.556C376.918 103.216 378.424 104.185 379.684 105.462C380.945 106.718 381.928 108.272 382.633 110.124C383.338 111.955 383.691 114.052 383.691 116.415C383.691 117.011 383.658 117.512 383.594 117.916C383.552 118.299 383.456 118.608 383.306 118.842C383.178 119.055 382.996 119.215 382.761 119.321C382.526 119.406 382.227 119.449 381.864 119.449H361.545C361.781 122.813 362.689 125.282 364.269 126.858C365.85 128.433 367.944 129.221 370.551 129.221C371.833 129.221 372.934 129.072 373.852 128.774C374.792 128.475 375.604 128.146 376.288 127.784C376.992 127.422 377.601 127.092 378.114 126.794C378.648 126.496 379.161 126.347 379.653 126.347C379.973 126.347 380.251 126.411 380.486 126.538C380.72 126.666 380.924 126.847 381.094 127.081L383.403 129.955C382.526 130.977 381.543 131.839 380.454 132.542C379.365 133.223 378.221 133.776 377.025 134.202C375.85 134.607 374.643 134.894 373.403 135.064C372.186 135.235 370.999 135.32 369.846 135.32C367.559 135.32 365.434 134.947 363.468 134.202C361.502 133.436 359.793 132.318 358.341 130.849C356.888 129.359 355.744 127.528 354.912 125.357C354.078 123.164 353.661 120.631 353.661 117.757C353.661 115.521 354.024 113.424 354.751 111.466C355.478 109.486 356.514 107.772 357.86 106.324C359.227 104.855 360.883 103.695 362.828 102.844C364.793 101.992 367.004 101.566 369.461 101.566ZM369.622 107.218C367.314 107.218 365.509 107.868 364.205 109.166C362.902 110.465 362.069 112.307 361.706 114.691H376.576C376.576 113.669 376.437 112.711 376.159 111.817C375.881 110.901 375.454 110.103 374.878 109.422C374.3 108.741 373.574 108.208 372.698 107.825C371.822 107.421 370.796 107.218 369.622 107.218Z" fill="#20252B"/>
<path d="M390.112 134.841V102.077H394.759C395.571 102.077 396.137 102.226 396.457 102.524C396.778 102.822 396.992 103.333 397.098 104.057L397.579 108.017C398.754 105.994 400.132 104.398 401.714 103.227C403.294 102.056 405.068 101.471 407.033 101.471C408.657 101.471 410.003 101.843 411.071 102.588L410.046 108.496C409.982 108.879 409.843 109.156 409.629 109.326C409.416 109.475 409.127 109.55 408.763 109.55C408.444 109.55 408.005 109.475 407.45 109.326C406.894 109.177 406.157 109.103 405.238 109.103C403.593 109.103 402.183 109.56 401.008 110.476C399.833 111.37 398.839 112.69 398.028 114.435V134.841H390.112Z" fill="#20252B"/>
<path d="M416.372 134.841V87.3878H424.288V106.101C425.592 104.717 427.065 103.621 428.711 102.812C430.356 101.981 432.278 101.566 434.479 101.566C436.274 101.566 437.908 101.939 439.382 102.684C440.878 103.408 442.16 104.472 443.229 105.877C444.318 107.282 445.151 109.017 445.729 111.082C446.327 113.148 446.626 115.521 446.626 118.204C446.626 120.652 446.295 122.919 445.632 125.005C444.97 127.092 444.019 128.901 442.78 130.434C441.562 131.967 440.077 133.17 438.326 134.043C436.595 134.894 434.651 135.32 432.493 135.32C431.488 135.32 430.569 135.213 429.736 135.001C428.903 134.809 428.145 134.532 427.461 134.17C426.777 133.808 426.137 133.372 425.538 132.861C424.961 132.329 424.406 131.743 423.872 131.105L423.519 133.308C423.391 133.862 423.166 134.255 422.846 134.49C422.547 134.724 422.13 134.841 421.596 134.841H416.372ZM431.755 107.697C430.11 107.697 428.7 108.049 427.525 108.751C426.371 109.433 425.292 110.401 424.288 111.657V126.347C425.185 127.454 426.157 128.231 427.204 128.678C428.273 129.104 429.427 129.316 430.666 129.316C431.862 129.316 432.941 129.093 433.903 128.646C434.864 128.199 435.676 127.518 436.338 126.602C437.022 125.687 437.545 124.537 437.908 123.153C438.272 121.748 438.454 120.098 438.454 118.204C438.454 116.288 438.293 114.67 437.972 113.35C437.673 112.008 437.235 110.923 436.659 110.093C436.082 109.262 435.377 108.655 434.543 108.272C433.732 107.889 432.802 107.697 431.755 107.697Z" fill="#20252B"/>
<path d="M478.598 134.841H475.04C474.292 134.841 473.705 134.734 473.278 134.522C472.85 134.287 472.53 133.83 472.317 133.148L471.611 130.817C470.778 131.562 469.955 132.222 469.143 132.797C468.353 133.351 467.531 133.819 466.676 134.202C465.821 134.585 464.914 134.873 463.951 135.064C462.99 135.256 461.922 135.352 460.747 135.352C459.358 135.352 458.076 135.171 456.901 134.809C455.726 134.426 454.711 133.862 453.856 133.117C453.024 132.371 452.371 131.445 451.902 130.338C451.432 129.231 451.197 127.943 451.197 126.474C451.197 125.24 451.517 124.026 452.158 122.834C452.82 121.62 453.91 120.535 455.427 119.577C456.944 118.597 458.963 117.788 461.484 117.15C464.005 116.511 467.135 116.149 470.874 116.064V114.148C470.874 111.955 470.404 110.337 469.464 109.294C468.545 108.23 467.199 107.698 465.426 107.698C464.144 107.698 463.076 107.847 462.221 108.145C461.366 108.443 460.619 108.783 459.978 109.166C459.358 109.528 458.782 109.858 458.247 110.156C457.713 110.454 457.126 110.603 456.484 110.603C455.95 110.603 455.491 110.465 455.107 110.188C454.722 109.912 454.412 109.571 454.177 109.166L452.734 106.644C456.517 103.195 461.078 101.471 466.419 101.471C468.343 101.471 470.052 101.79 471.547 102.428C473.064 103.046 474.346 103.919 475.392 105.047C476.439 106.154 477.23 107.485 477.765 109.039C478.32 110.593 478.598 112.296 478.598 114.148V134.841ZM463.214 129.923C464.026 129.923 464.774 129.849 465.458 129.7C466.142 129.551 466.783 129.327 467.381 129.029C468 128.731 468.588 128.369 469.143 127.943C469.72 127.496 470.298 126.975 470.874 126.379V120.854C468.567 120.961 466.633 121.163 465.073 121.461C463.535 121.738 462.296 122.099 461.356 122.547C460.416 122.994 459.743 123.515 459.337 124.111C458.952 124.707 458.76 125.357 458.76 126.059C458.76 127.443 459.165 128.433 459.978 129.029C460.811 129.625 461.89 129.923 463.214 129.923Z" fill="#20252B"/>
<path d="M505.899 108.464C505.685 108.804 505.461 109.049 505.226 109.198C504.991 109.326 504.692 109.39 504.328 109.39C503.944 109.39 503.527 109.284 503.079 109.071C502.651 108.858 502.149 108.624 501.572 108.368C500.996 108.091 500.333 107.847 499.585 107.634C498.859 107.421 497.994 107.314 496.989 107.314C495.43 107.314 494.201 107.644 493.303 108.304C492.406 108.964 491.957 109.826 491.957 110.891C491.957 111.593 492.182 112.189 492.63 112.679C493.101 113.148 493.71 113.563 494.458 113.924C495.227 114.286 496.092 114.616 497.053 114.914C498.015 115.191 498.997 115.5 500.002 115.841C501.006 116.181 501.989 116.575 502.95 117.022C503.912 117.448 504.766 118.001 505.514 118.683C506.283 119.343 506.893 120.141 507.341 121.078C507.811 122.014 508.046 123.143 508.046 124.463C508.046 126.038 507.757 127.496 507.181 128.837C506.604 130.157 505.76 131.307 504.649 132.286C503.538 133.244 502.16 134 500.515 134.554C498.891 135.086 497.022 135.352 494.906 135.352C493.774 135.352 492.663 135.245 491.574 135.032C490.505 134.841 489.469 134.564 488.464 134.202C487.482 133.84 486.563 133.415 485.708 132.925C484.875 132.435 484.138 131.903 483.497 131.328L485.324 128.326C485.559 127.965 485.836 127.688 486.157 127.496C486.478 127.305 486.883 127.209 487.375 127.209C487.866 127.209 488.326 127.347 488.753 127.624C489.201 127.901 489.714 128.199 490.292 128.518C490.868 128.837 491.541 129.135 492.311 129.412C493.101 129.689 494.094 129.827 495.291 129.827C496.231 129.827 497.033 129.721 497.695 129.508C498.379 129.274 498.934 128.976 499.361 128.614C499.809 128.252 500.13 127.837 500.323 127.368C500.536 126.879 500.643 126.379 500.643 125.868C500.643 125.101 500.407 124.473 499.938 123.984C499.489 123.494 498.88 123.068 498.111 122.706C497.363 122.344 496.498 122.025 495.515 121.748C494.554 121.45 493.56 121.131 492.535 120.79C491.53 120.45 490.537 120.056 489.555 119.609C488.592 119.14 487.727 118.555 486.958 117.852C486.21 117.15 485.601 116.288 485.132 115.266C484.683 114.244 484.459 113.009 484.459 111.561C484.459 110.22 484.725 108.943 485.26 107.729C485.794 106.516 486.573 105.462 487.6 104.568C488.646 103.653 489.938 102.929 491.477 102.397C493.037 101.843 494.831 101.566 496.861 101.566C499.126 101.566 501.188 101.939 503.046 102.684C504.905 103.429 506.455 104.408 507.693 105.622L505.899 108.464Z" fill="#20252B"/>
<path d="M527.95 101.566C530.022 101.566 531.924 101.896 533.654 102.556C535.406 103.216 536.912 104.185 538.173 105.462C539.433 106.718 540.416 108.272 541.122 110.124C541.826 111.955 542.179 114.052 542.179 116.415C542.179 117.011 542.147 117.512 542.083 117.916C542.04 118.299 541.944 118.608 541.795 118.842C541.666 119.055 541.485 119.215 541.249 119.321C541.014 119.406 540.715 119.449 540.352 119.449H520.034C520.269 122.813 521.176 125.282 522.757 126.858C524.339 128.433 526.432 129.221 529.039 129.221C530.321 129.221 531.421 129.072 532.34 128.774C533.281 128.475 534.092 128.146 534.776 127.784C535.481 127.422 536.09 127.092 536.602 126.794C537.137 126.496 537.649 126.347 538.141 126.347C538.461 126.347 538.739 126.411 538.974 126.538C539.209 126.666 539.412 126.847 539.583 127.081L541.89 129.955C541.014 130.977 540.031 131.839 538.942 132.542C537.852 133.223 536.71 133.776 535.513 134.202C534.337 134.607 533.131 134.894 531.891 135.064C530.673 135.235 529.488 135.32 528.334 135.32C526.048 135.32 523.922 134.947 521.956 134.202C519.991 133.436 518.281 132.318 516.829 130.849C515.376 129.359 514.233 127.528 513.399 125.357C512.567 123.164 512.15 120.631 512.15 117.757C512.15 115.521 512.513 113.424 513.24 111.466C513.966 109.486 515.002 107.772 516.348 106.324C517.716 104.855 519.372 103.695 521.316 102.844C523.281 101.992 525.493 101.566 527.95 101.566ZM528.11 107.218C525.803 107.218 523.997 107.868 522.693 109.166C521.391 110.465 520.557 112.307 520.194 114.691H535.064C535.064 113.669 534.926 112.711 534.647 111.817C534.37 110.901 533.943 110.103 533.365 109.422C532.789 108.741 532.062 108.208 531.187 107.825C530.31 107.421 529.285 107.218 528.11 107.218Z" fill="#20252B"/>
<path d="M95.0265 106.172L70 133.538L138.699 150.037C143.199 151.118 146.891 146.431 144.77 142.332L131.565 116.814L144.178 79.2108L86.7318 72.3275C82.406 71.8092 79.2737 76.3416 81.3025 80.1836L95.0265 106.172Z" fill="#20252B"/>
<path d="M94.2005 384H72.3577V319.542H94.6411C101.041 319.542 106.538 320.832 111.133 323.413C115.75 325.973 119.296 329.655 121.771 334.46C124.247 339.265 125.485 345.015 125.485 351.708C125.485 358.422 124.237 364.193 121.74 369.018C119.264 373.844 115.687 377.548 111.007 380.129C106.349 382.71 100.747 384 94.2005 384ZM84.0345 373.897H93.634C98.1242 373.897 101.87 373.079 104.87 371.442C107.871 369.784 110.126 367.319 111.637 364.046C113.148 360.751 113.903 356.639 113.903 351.708C113.903 346.777 113.148 342.685 111.637 339.433C110.126 336.16 107.892 333.715 104.933 332.1C101.995 330.463 98.3445 329.645 93.9802 329.645H84.0345V373.897ZM157.478 384.944C152.632 384.944 148.445 383.937 144.92 381.923C141.416 379.887 138.72 377.013 136.832 373.299C134.943 369.564 133.999 365.168 133.999 360.111C133.999 355.139 134.943 350.774 136.832 347.018C138.741 343.241 141.406 340.304 144.826 338.206C148.246 336.086 152.264 335.027 156.88 335.027C159.86 335.027 162.672 335.509 165.315 336.475C167.98 337.419 170.33 338.888 172.366 340.881C174.422 342.874 176.037 345.413 177.213 348.498C178.388 351.561 178.975 355.212 178.975 359.45V362.944H139.35V355.264H168.054C168.033 353.082 167.561 351.141 166.637 349.442C165.714 347.721 164.424 346.368 162.766 345.382C161.129 344.396 159.22 343.902 157.038 343.902C154.709 343.902 152.663 344.469 150.9 345.602C149.138 346.714 147.764 348.183 146.777 350.008C145.812 351.813 145.319 353.796 145.298 355.957V362.661C145.298 365.472 145.812 367.885 146.84 369.9C147.868 371.893 149.306 373.425 151.152 374.495C152.999 375.544 155.16 376.069 157.636 376.069C159.293 376.069 160.794 375.838 162.137 375.376C163.479 374.894 164.644 374.191 165.63 373.267C166.616 372.344 167.361 371.201 167.865 369.837L178.503 371.033C177.831 373.844 176.552 376.299 174.663 378.398C172.796 380.475 170.404 382.091 167.487 383.245C164.571 384.378 161.234 384.944 157.478 384.944ZM226.823 348.435L216.437 349.568C216.143 348.519 215.629 347.532 214.894 346.609C214.181 345.686 213.216 344.941 211.999 344.375C210.782 343.808 209.292 343.525 207.53 343.525C205.159 343.525 203.165 344.039 201.55 345.067C199.955 346.095 199.168 347.427 199.189 349.064C199.168 350.47 199.682 351.614 200.731 352.495C201.801 353.376 203.564 354.1 206.019 354.666L214.265 356.429C218.839 357.415 222.238 358.978 224.462 361.119C226.708 363.259 227.841 366.06 227.862 369.522C227.841 372.565 226.949 375.25 225.186 377.579C223.445 379.887 221.021 381.692 217.916 382.993C214.811 384.294 211.243 384.944 207.215 384.944C201.298 384.944 196.535 383.706 192.926 381.23C189.317 378.733 187.166 375.261 186.474 370.812L197.584 369.742C198.087 371.925 199.158 373.572 200.794 374.684C202.431 375.796 204.561 376.352 207.183 376.352C209.89 376.352 212.062 375.796 213.698 374.684C215.356 373.572 216.185 372.197 216.185 370.561C216.185 369.176 215.65 368.032 214.58 367.13C213.531 366.228 211.894 365.535 209.67 365.053L201.424 363.322C196.787 362.357 193.356 360.73 191.132 358.443C188.908 356.135 187.806 353.219 187.827 349.694C187.806 346.714 188.614 344.133 190.251 341.951C191.908 339.748 194.206 338.048 197.143 336.852C200.102 335.635 203.511 335.027 207.372 335.027C213.038 335.027 217.496 336.233 220.749 338.646C224.022 341.059 226.047 344.322 226.823 348.435ZM237.257 384V335.656H248.65V384H237.257ZM242.985 328.795C241.18 328.795 239.628 328.197 238.327 327.001C237.026 325.784 236.375 324.326 236.375 322.626C236.375 320.906 237.026 319.447 238.327 318.251C239.628 317.034 241.18 316.426 242.985 316.426C244.81 316.426 246.363 317.034 247.643 318.251C248.944 319.447 249.594 320.906 249.594 322.626C249.594 324.326 248.944 325.784 247.643 327.001C246.363 328.197 244.81 328.795 242.985 328.795ZM281.391 403.136C277.299 403.136 273.784 402.58 270.847 401.468C267.909 400.377 265.549 398.908 263.765 397.062C261.982 395.215 260.744 393.169 260.051 390.924L270.312 388.438C270.773 389.382 271.445 390.316 272.326 391.239C273.207 392.183 274.393 392.96 275.883 393.568C277.393 394.197 279.292 394.512 281.579 394.512C284.811 394.512 287.486 393.725 289.605 392.152C291.725 390.599 292.784 388.039 292.784 384.472V375.313H292.218C291.63 376.488 290.77 377.695 289.637 378.933C288.525 380.171 287.045 381.209 285.199 382.049C283.373 382.888 281.076 383.308 278.306 383.308C274.592 383.308 271.225 382.437 268.203 380.695C265.203 378.933 262.811 376.31 261.027 372.827C259.265 369.323 258.383 364.937 258.383 359.671C258.383 354.362 259.265 349.882 261.027 346.231C262.811 342.56 265.213 339.779 268.235 337.891C271.256 335.982 274.624 335.027 278.338 335.027C281.17 335.027 283.499 335.509 285.325 336.475C287.171 337.419 288.64 338.562 289.731 339.905C290.822 341.227 291.651 342.476 292.218 343.651H292.847V335.656H304.083V384.787C304.083 388.92 303.097 392.341 301.125 395.047C299.152 397.754 296.456 399.779 293.036 401.122C289.616 402.465 285.734 403.136 281.391 403.136ZM281.485 374.369C283.898 374.369 285.954 373.782 287.654 372.607C289.353 371.431 290.644 369.742 291.525 367.539C292.406 365.336 292.847 362.692 292.847 359.608C292.847 356.565 292.406 353.901 291.525 351.614C290.665 349.326 289.385 347.553 287.685 346.294C286.007 345.015 283.94 344.375 281.485 344.375C278.946 344.375 276.827 345.035 275.127 346.357C273.428 347.679 272.148 349.494 271.288 351.802C270.427 354.089 269.997 356.691 269.997 359.608C269.997 362.566 270.427 365.158 271.288 367.382C272.169 369.585 273.459 371.306 275.159 372.544C276.879 373.761 278.988 374.369 281.485 374.369ZM327.153 355.674V384H315.76V335.656H326.65V343.871H327.216C328.328 341.164 330.102 339.014 332.535 337.419C334.99 335.824 338.022 335.027 341.631 335.027C344.968 335.027 347.874 335.74 350.35 337.167C352.847 338.594 354.777 340.661 356.141 343.367C357.526 346.074 358.208 349.358 358.187 353.219V384H346.793V354.981C346.793 351.75 345.954 349.222 344.275 347.396C342.618 345.571 340.32 344.658 337.382 344.658C335.389 344.658 333.616 345.098 332.063 345.98C330.532 346.84 329.325 348.088 328.444 349.725C327.584 351.362 327.153 353.345 327.153 355.674ZM427.287 337.261C426.993 334.513 425.755 332.373 423.573 330.841C421.412 329.309 418.6 328.543 415.138 328.543C412.704 328.543 410.617 328.91 408.875 329.645C407.134 330.379 405.801 331.376 404.878 332.635C403.955 333.894 403.483 335.331 403.462 336.947C403.462 338.29 403.766 339.454 404.374 340.44C405.004 341.427 405.854 342.266 406.924 342.958C407.994 343.63 409.179 344.196 410.48 344.658C411.781 345.119 413.093 345.508 414.414 345.822L420.457 347.333C422.891 347.9 425.231 348.665 427.476 349.631C429.742 350.596 431.767 351.813 433.55 353.282C435.355 354.75 436.782 356.523 437.831 358.601C438.88 360.678 439.405 363.112 439.405 365.903C439.405 369.679 438.439 373.005 436.509 375.88C434.579 378.733 431.788 380.968 428.137 382.584C424.507 384.178 420.111 384.976 414.95 384.976C409.935 384.976 405.581 384.199 401.888 382.647C398.216 381.094 395.341 378.828 393.264 375.848C391.208 372.869 390.096 369.239 389.928 364.958H401.416C401.584 367.204 402.276 369.071 403.493 370.561C404.71 372.05 406.294 373.163 408.246 373.897C410.218 374.631 412.421 374.999 414.855 374.999C417.394 374.999 419.618 374.621 421.528 373.865C423.458 373.089 424.969 372.019 426.06 370.655C427.151 369.27 427.707 367.655 427.728 365.808C427.707 364.13 427.214 362.745 426.249 361.654C425.283 360.542 423.93 359.618 422.188 358.884C420.468 358.129 418.454 357.457 416.146 356.87L408.812 354.981C403.504 353.617 399.307 351.551 396.223 348.781C393.159 345.99 391.627 342.287 391.627 337.671C391.627 333.873 392.656 330.547 394.712 327.693C396.789 324.84 399.611 322.626 403.178 321.052C406.745 319.458 410.784 318.66 415.296 318.66C419.87 318.66 423.878 319.458 427.319 321.052C430.781 322.626 433.498 324.819 435.47 327.631C437.443 330.421 438.46 333.632 438.523 337.261H427.287ZM456.393 402.129C454.84 402.129 453.403 402.003 452.081 401.751C450.78 401.52 449.741 401.248 448.965 400.933L451.609 392.057C453.266 392.54 454.745 392.771 456.046 392.75C457.347 392.729 458.491 392.32 459.477 391.522C460.484 390.746 461.334 389.445 462.026 387.619L463.002 385.007L445.471 335.656H457.557L468.699 372.166H469.202L480.376 335.656H492.493L473.137 389.854C472.234 392.414 471.038 394.607 469.549 396.432C468.059 398.279 466.233 399.684 464.072 400.65C461.932 401.636 459.372 402.129 456.393 402.129ZM538.586 348.435L528.2 349.568C527.906 348.519 527.392 347.532 526.658 346.609C525.944 345.686 524.979 344.941 523.762 344.375C522.545 343.808 521.055 343.525 519.293 343.525C516.922 343.525 514.928 344.039 513.313 345.067C511.718 346.095 510.931 347.427 510.952 349.064C510.931 350.47 511.445 351.614 512.495 352.495C513.565 353.376 515.327 354.1 517.782 354.666L526.028 356.429C530.602 357.415 534.002 358.978 536.226 361.119C538.471 363.259 539.604 366.06 539.625 369.522C539.604 372.565 538.712 375.25 536.95 377.579C535.208 379.887 532.785 381.692 529.679 382.993C526.574 384.294 523.007 384.944 518.978 384.944C513.061 384.944 508.298 383.706 504.689 381.23C501.08 378.733 498.929 375.261 498.237 370.812L509.347 369.742C509.851 371.925 510.921 373.572 512.557 374.684C514.194 375.796 516.324 376.352 518.947 376.352C521.653 376.352 523.825 375.796 525.462 374.684C527.119 373.572 527.948 372.197 527.948 370.561C527.948 369.176 527.413 368.032 526.343 367.13C525.294 366.228 523.657 365.535 521.433 365.053L513.187 363.322C508.55 362.357 505.119 360.73 502.895 358.443C500.671 356.135 499.569 353.219 499.59 349.694C499.569 346.714 500.377 344.133 502.014 341.951C503.671 339.748 505.969 338.048 508.907 336.852C511.865 335.635 515.275 335.027 519.135 335.027C524.801 335.027 529.26 336.233 532.512 338.646C535.785 341.059 537.81 344.322 538.586 348.435ZM573.16 335.656V344.469H545.369V335.656H573.16ZM552.23 324.074H563.624V369.459C563.624 370.991 563.854 372.166 564.316 372.984C564.799 373.782 565.428 374.327 566.204 374.621C566.981 374.915 567.841 375.061 568.785 375.061C569.499 375.061 570.149 375.009 570.737 374.904C571.345 374.799 571.807 374.705 572.122 374.621L574.041 383.528C573.433 383.738 572.562 383.969 571.429 384.22C570.317 384.472 568.953 384.619 567.338 384.661C564.484 384.745 561.914 384.315 559.626 383.371C557.339 382.405 555.524 380.916 554.182 378.901C552.86 376.887 552.209 374.369 552.23 371.348V324.074ZM603.572 384.944C598.725 384.944 594.539 383.937 591.014 381.923C587.51 379.887 584.813 377.013 582.925 373.299C581.036 369.564 580.092 365.168 580.092 360.111C580.092 355.139 581.036 350.774 582.925 347.018C584.834 343.241 587.499 340.304 590.919 338.206C594.339 336.086 598.358 335.027 602.974 335.027C605.953 335.027 608.765 335.509 611.409 336.475C614.073 337.419 616.423 338.888 618.459 340.881C620.515 342.874 622.131 345.413 623.306 348.498C624.481 351.561 625.068 355.212 625.068 359.45V362.944H585.443V355.264H614.147C614.126 353.082 613.654 351.141 612.731 349.442C611.807 347.721 610.517 346.368 608.859 345.382C607.223 344.396 605.313 343.902 603.131 343.902C600.802 343.902 598.756 344.469 596.994 345.602C595.231 346.714 593.857 348.183 592.871 350.008C591.905 351.813 591.412 353.796 591.391 355.957V362.661C591.391 365.472 591.905 367.885 592.934 369.9C593.962 371.893 595.399 373.425 597.245 374.495C599.092 375.544 601.253 376.069 603.729 376.069C605.387 376.069 606.887 375.838 608.23 375.376C609.573 374.894 610.737 374.191 611.723 373.267C612.71 372.344 613.454 371.201 613.958 369.837L624.596 371.033C623.925 373.844 622.645 376.299 620.756 378.398C618.889 380.475 616.497 382.091 613.58 383.245C610.664 384.378 607.328 384.944 603.572 384.944ZM634.707 384V335.656H645.597V343.871H646.164C647.171 341.101 648.839 338.94 651.168 337.387C653.497 335.814 656.277 335.027 659.508 335.027C662.782 335.027 665.541 335.824 667.786 337.419C670.052 338.993 671.647 341.143 672.57 343.871H673.074C674.144 341.185 675.948 339.045 678.487 337.45C681.047 335.835 684.079 335.027 687.583 335.027C692.031 335.027 695.661 336.433 698.473 339.244C701.285 342.056 702.69 346.158 702.69 351.551V384H691.265V353.313C691.265 350.313 690.468 348.12 688.873 346.735C687.279 345.329 685.327 344.626 683.019 344.626C680.271 344.626 678.12 345.487 676.567 347.207C675.036 348.907 674.27 351.12 674.27 353.848V384H663.096V352.841C663.096 350.344 662.341 348.351 660.83 346.861C659.341 345.371 657.389 344.626 654.976 344.626C653.34 344.626 651.85 345.046 650.507 345.885C649.164 346.704 648.094 347.868 647.297 349.379C646.499 350.869 646.101 352.61 646.101 354.604V384H634.707ZM752.458 348.435L742.072 349.568C741.778 348.519 741.264 347.532 740.53 346.609C739.816 345.686 738.851 344.941 737.634 344.375C736.417 343.808 734.927 343.525 733.165 343.525C730.794 343.525 728.801 344.039 727.185 345.067C725.59 346.095 724.803 347.427 724.824 349.064C724.803 350.47 725.317 351.614 726.367 352.495C727.437 353.376 729.199 354.1 731.654 354.666L739.9 356.429C744.474 357.415 747.874 358.978 750.098 361.119C752.343 363.259 753.476 366.06 753.497 369.522C753.476 372.565 752.584 375.25 750.822 377.579C749.08 379.887 746.657 381.692 743.551 382.993C740.446 384.294 736.879 384.944 732.85 384.944C726.933 384.944 722.17 383.706 718.561 381.23C714.952 378.733 712.801 375.261 712.109 370.812L723.219 369.742C723.723 371.925 724.793 373.572 726.429 374.684C728.066 375.796 730.196 376.352 732.819 376.352C735.525 376.352 737.697 375.796 739.334 374.684C740.991 373.572 741.82 372.197 741.82 370.561C741.82 369.176 741.285 368.032 740.215 367.13C739.166 366.228 737.529 365.535 735.305 365.053L727.059 363.322C722.422 362.357 718.991 360.73 716.767 358.443C714.543 356.135 713.441 353.219 713.462 349.694C713.441 346.714 714.249 344.133 715.886 341.951C717.543 339.748 719.841 338.048 722.779 336.852C725.737 335.635 729.147 335.027 733.007 335.027C738.673 335.027 743.132 336.233 746.384 338.646C749.657 341.059 751.682 344.322 752.458 348.435ZM71.8541 491V442.656H83.2476V491H71.8541ZM77.5823 435.795C75.7778 435.795 74.2251 435.197 72.9242 434.001C71.6233 432.784 70.9729 431.326 70.9729 429.626C70.9729 427.906 71.6233 426.447 72.9242 425.251C74.2251 424.034 75.7778 423.426 77.5823 423.426C79.4078 423.426 80.9605 424.034 82.2405 425.251C83.5414 426.447 84.1918 427.906 84.1918 429.626C84.1918 431.326 83.5414 432.784 82.2405 434.001C80.9605 435.197 79.4078 435.795 77.5823 435.795ZM106.357 462.674V491H94.9637V442.656H105.854V450.871H106.42C107.532 448.164 109.305 446.014 111.739 444.419C114.194 442.824 117.226 442.027 120.835 442.027C124.171 442.027 127.077 442.74 129.553 444.167C132.05 445.594 133.981 447.661 135.345 450.367C136.729 453.074 137.411 456.358 137.39 460.219V491H125.997V461.981C125.997 458.75 125.158 456.222 123.479 454.396C121.821 452.571 119.524 451.658 116.586 451.658C114.593 451.658 112.82 452.098 111.267 452.98C109.735 453.84 108.529 455.088 107.648 456.725C106.787 458.362 106.357 460.345 106.357 462.674ZM171.461 491V426.542H195.633C200.584 426.542 204.739 427.465 208.096 429.311C211.474 431.158 214.024 433.697 215.744 436.928C217.486 440.138 218.357 443.789 218.357 447.881C218.357 452.015 217.486 455.686 215.744 458.897C214.003 462.107 211.432 464.635 208.033 466.482C204.634 468.307 200.448 469.22 195.475 469.22H179.455V459.621H193.901C196.797 459.621 199.168 459.117 201.015 458.11C202.861 457.103 204.225 455.718 205.106 453.955C206.008 452.193 206.459 450.168 206.459 447.881C206.459 445.594 206.008 443.58 205.106 441.838C204.225 440.096 202.851 438.743 200.983 437.778C199.137 436.792 196.755 436.299 193.839 436.299H183.137V491H171.461ZM227.995 491V442.656H239.043V450.714H239.546C240.428 447.923 241.938 445.772 244.079 444.261C246.24 442.73 248.705 441.964 251.475 441.964C252.104 441.964 252.807 441.995 253.584 442.058C254.381 442.1 255.042 442.174 255.566 442.279V452.759C255.084 452.592 254.318 452.445 253.269 452.319C252.241 452.172 251.244 452.098 250.279 452.098C248.202 452.098 246.334 452.55 244.677 453.452C243.04 454.333 241.749 455.561 240.805 457.134C239.861 458.708 239.389 460.523 239.389 462.579V491H227.995ZM282.233 491.944C277.511 491.944 273.42 490.906 269.958 488.828C266.496 486.751 263.81 483.845 261.901 480.11C260.012 476.375 259.068 472.011 259.068 467.017C259.068 462.023 260.012 457.648 261.901 453.892C263.81 450.137 266.496 447.22 269.958 445.143C273.42 443.065 277.511 442.027 282.233 442.027C286.954 442.027 291.045 443.065 294.507 445.143C297.969 447.22 300.645 450.137 302.533 453.892C304.443 457.648 305.397 462.023 305.397 467.017C305.397 472.011 304.443 476.375 302.533 480.11C300.645 483.845 297.969 486.751 294.507 488.828C291.045 490.906 286.954 491.944 282.233 491.944ZM282.295 482.817C284.855 482.817 286.996 482.114 288.716 480.708C290.437 479.281 291.717 477.372 292.556 474.98C293.416 472.588 293.846 469.923 293.846 466.986C293.846 464.027 293.416 461.352 292.556 458.96C291.717 456.547 290.437 454.627 288.716 453.2C286.996 451.773 284.855 451.06 282.295 451.06C279.673 451.06 277.491 451.773 275.749 453.2C274.028 454.627 272.738 456.547 271.878 458.96C271.038 461.352 270.619 464.027 270.619 466.986C270.619 469.923 271.038 472.588 271.878 474.98C272.738 477.372 274.028 479.281 275.749 480.708C277.491 482.114 279.673 482.817 282.295 482.817ZM333.008 491.85C329.21 491.85 325.811 490.874 322.81 488.923C319.81 486.971 317.439 484.139 315.697 480.425C313.955 476.711 313.085 472.2 313.085 466.891C313.085 461.52 313.966 456.987 315.729 453.294C317.512 449.581 319.915 446.779 322.936 444.891C325.957 442.982 329.325 442.027 333.039 442.027C335.872 442.027 338.201 442.509 340.026 443.475C341.852 444.419 343.3 445.562 344.37 446.905C345.44 448.227 346.269 449.476 346.856 450.651H347.328V426.542H358.753V491H347.548V483.383H346.856C346.269 484.558 345.419 485.807 344.307 487.129C343.195 488.43 341.726 489.542 339.9 490.465C338.075 491.388 335.777 491.85 333.008 491.85ZM336.186 482.502C338.599 482.502 340.656 481.852 342.355 480.551C344.055 479.229 345.345 477.393 346.227 475.043C347.108 472.693 347.548 469.955 347.548 466.828C347.548 463.702 347.108 460.985 346.227 458.676C345.366 456.368 344.086 454.574 342.387 453.294C340.708 452.015 338.641 451.375 336.186 451.375C333.648 451.375 331.528 452.035 329.829 453.357C328.129 454.679 326.849 456.505 325.989 458.834C325.129 461.163 324.699 463.828 324.699 466.828C324.699 469.85 325.129 472.546 325.989 474.917C326.87 477.267 328.161 479.124 329.86 480.488C331.581 481.831 333.69 482.502 336.186 482.502ZM401.707 470.668V442.656H413.1V491H402.053V482.408H401.55C400.458 485.114 398.664 487.328 396.168 489.049C393.692 490.769 390.639 491.629 387.009 491.629C383.84 491.629 381.039 490.927 378.605 489.521C376.192 488.094 374.304 486.027 372.94 483.32C371.576 480.593 370.894 477.298 370.894 473.438V442.656H382.288V471.675C382.288 474.739 383.127 477.173 384.806 478.977C386.484 480.782 388.687 481.684 391.415 481.684C393.094 481.684 394.72 481.275 396.293 480.456C397.867 479.638 399.158 478.421 400.165 476.805C401.193 475.169 401.707 473.123 401.707 470.668ZM445.904 491.944C441.078 491.944 436.934 490.885 433.472 488.765C430.031 486.646 427.376 483.719 425.509 479.984C423.662 476.228 422.739 471.906 422.739 467.017C422.739 462.107 423.683 457.774 425.572 454.018C427.46 450.241 430.125 447.304 433.566 445.206C437.028 443.086 441.12 442.027 445.841 442.027C449.765 442.027 453.237 442.751 456.259 444.199C459.301 445.625 461.725 447.65 463.529 450.273C465.334 452.875 466.362 455.917 466.614 459.4H455.724C455.283 457.071 454.234 455.13 452.576 453.578C450.94 452.004 448.747 451.217 445.998 451.217C443.669 451.217 441.624 451.847 439.861 453.106C438.098 454.344 436.724 456.127 435.738 458.456C434.773 460.785 434.29 463.576 434.29 466.828C434.29 470.122 434.773 472.955 435.738 475.326C436.703 477.676 438.056 479.491 439.798 480.771C441.561 482.03 443.627 482.659 445.998 482.659C447.677 482.659 449.177 482.345 450.499 481.715C451.842 481.065 452.965 480.131 453.867 478.914C454.769 477.697 455.388 476.218 455.724 474.476H466.614C466.341 477.896 465.334 480.928 463.592 483.572C461.851 486.195 459.48 488.251 456.479 489.741C453.479 491.21 449.954 491.944 445.904 491.944ZM500.11 442.656V451.469H472.318V442.656H500.11ZM479.18 431.074H490.573V476.459C490.573 477.991 490.804 479.166 491.265 479.984C491.748 480.782 492.378 481.327 493.154 481.621C493.93 481.915 494.791 482.061 495.735 482.061C496.448 482.061 497.099 482.009 497.686 481.904C498.295 481.799 498.756 481.705 499.071 481.621L500.991 490.528C500.382 490.738 499.512 490.969 498.379 491.22C497.266 491.472 495.903 491.619 494.287 491.661C491.433 491.745 488.863 491.315 486.576 490.371C484.289 489.405 482.474 487.916 481.131 485.901C479.809 483.887 479.159 481.369 479.18 478.348V431.074ZM529.294 436.33V426.542H580.722V436.33H560.799V491H549.217V436.33H529.294ZM604.524 491.944C599.677 491.944 595.491 490.937 591.966 488.923C588.462 486.887 585.765 484.013 583.877 480.299C581.989 476.564 581.044 472.168 581.044 467.111C581.044 462.139 581.989 457.774 583.877 454.018C585.786 450.241 588.451 447.304 591.871 445.206C595.291 443.086 599.31 442.027 603.926 442.027C606.905 442.027 609.717 442.509 612.361 443.475C615.026 444.419 617.376 445.888 619.411 447.881C621.467 449.874 623.083 452.413 624.258 455.498C625.433 458.561 626.02 462.212 626.02 466.45V469.944H586.395V462.264H615.099C615.078 460.082 614.606 458.141 613.683 456.442C612.759 454.721 611.469 453.368 609.811 452.382C608.175 451.396 606.265 450.902 604.083 450.902C601.754 450.902 599.708 451.469 597.946 452.602C596.183 453.714 594.809 455.183 593.823 457.008C592.858 458.813 592.364 460.796 592.343 462.957V469.661C592.343 472.472 592.858 474.885 593.886 476.9C594.914 478.893 596.351 480.425 598.198 481.495C600.044 482.544 602.205 483.069 604.681 483.069C606.339 483.069 607.839 482.838 609.182 482.376C610.525 481.894 611.689 481.191 612.675 480.267C613.662 479.344 614.407 478.201 614.91 476.837L625.548 478.033C624.877 480.844 623.597 483.299 621.708 485.398C619.841 487.475 617.449 489.091 614.532 490.245C611.616 491.378 608.28 491.944 604.524 491.944ZM649.571 491.976C646.507 491.976 643.748 491.43 641.293 490.339C638.859 489.227 636.929 487.59 635.502 485.429C634.096 483.268 633.393 480.603 633.393 477.435C633.393 474.707 633.897 472.451 634.904 470.668C635.911 468.884 637.285 467.458 639.027 466.388C640.768 465.317 642.73 464.51 644.912 463.964C647.116 463.398 649.392 462.988 651.742 462.737C654.575 462.443 656.872 462.181 658.635 461.95C660.398 461.698 661.677 461.32 662.475 460.817C663.293 460.292 663.702 459.484 663.702 458.393V458.204C663.702 455.833 662.999 453.997 661.594 452.696C660.188 451.396 658.163 450.745 655.519 450.745C652.728 450.745 650.515 451.354 648.878 452.571C647.262 453.788 646.171 455.225 645.605 456.882L634.967 455.372C635.806 452.434 637.191 449.979 639.121 448.007C641.052 446.014 643.412 444.524 646.203 443.538C648.994 442.53 652.078 442.027 655.456 442.027C657.785 442.027 660.104 442.3 662.412 442.845C664.72 443.391 666.829 444.293 668.738 445.552C670.647 446.79 672.179 448.479 673.333 450.619C674.508 452.759 675.096 455.435 675.096 458.645V491H664.143V484.359H663.765C663.073 485.702 662.097 486.961 660.838 488.136C659.6 489.29 658.037 490.224 656.149 490.937C654.281 491.629 652.088 491.976 649.571 491.976ZM652.529 483.604C654.816 483.604 656.799 483.153 658.478 482.25C660.156 481.327 661.447 480.11 662.349 478.599C663.272 477.089 663.734 475.441 663.734 473.658V467.961C663.377 468.255 662.769 468.528 661.908 468.78C661.069 469.031 660.125 469.252 659.076 469.44C658.027 469.629 656.988 469.797 655.96 469.944C654.932 470.091 654.04 470.217 653.284 470.322C651.585 470.553 650.064 470.93 648.721 471.455C647.378 471.979 646.318 472.714 645.542 473.658C644.766 474.581 644.377 475.777 644.377 477.246C644.377 479.344 645.143 480.928 646.675 481.999C648.207 483.069 650.158 483.604 652.529 483.604ZM686.552 491V442.656H697.442V450.871H698.009C699.016 448.101 700.684 445.94 703.013 444.387C705.342 442.814 708.122 442.027 711.354 442.027C714.627 442.027 717.386 442.824 719.631 444.419C721.897 445.993 723.492 448.143 724.415 450.871H724.919C725.989 448.185 727.793 446.045 730.332 444.45C732.892 442.835 735.924 442.027 739.428 442.027C743.876 442.027 747.506 443.433 750.318 446.244C753.13 449.056 754.536 453.158 754.536 458.551V491H743.111V460.313C743.111 457.313 742.313 455.12 740.719 453.735C739.124 452.329 737.173 451.626 734.864 451.626C732.116 451.626 729.965 452.487 728.412 454.207C726.881 455.907 726.115 458.12 726.115 460.848V491H714.942V459.841C714.942 457.344 714.186 455.351 712.675 453.861C711.186 452.371 709.234 451.626 706.821 451.626C705.185 451.626 703.695 452.046 702.352 452.885C701.009 453.704 699.939 454.868 699.142 456.379C698.344 457.869 697.946 459.61 697.946 461.604V491H686.552ZM804.303 455.435L793.917 456.568C793.623 455.519 793.109 454.532 792.375 453.609C791.661 452.686 790.696 451.941 789.479 451.375C788.262 450.808 786.773 450.525 785.01 450.525C782.639 450.525 780.646 451.039 779.03 452.067C777.435 453.095 776.648 454.427 776.669 456.064C776.648 457.47 777.163 458.614 778.212 459.495C779.282 460.376 781.044 461.1 783.499 461.666L791.745 463.429C796.32 464.415 799.719 465.978 801.943 468.119C804.188 470.259 805.321 473.06 805.342 476.522C805.321 479.565 804.429 482.25 802.667 484.579C800.925 486.887 798.502 488.692 795.396 489.993C792.291 491.294 788.724 491.944 784.695 491.944C778.778 491.944 774.015 490.706 770.406 488.23C766.797 485.733 764.646 482.261 763.954 477.812L775.064 476.742C775.568 478.925 776.638 480.572 778.275 481.684C779.911 482.796 782.041 483.352 784.664 483.352C787.371 483.352 789.542 482.796 791.179 481.684C792.836 480.572 793.665 479.197 793.665 477.561C793.665 476.176 793.13 475.032 792.06 474.13C791.011 473.228 789.374 472.535 787.15 472.053L778.904 470.322C774.267 469.357 770.836 467.73 768.612 465.443C766.388 463.135 765.286 460.219 765.307 456.694C765.286 453.714 766.094 451.133 767.731 448.951C769.389 446.748 771.686 445.048 774.624 443.852C777.582 442.635 780.992 442.027 784.853 442.027C790.518 442.027 794.977 443.233 798.229 445.646C801.502 448.059 803.527 451.322 804.303 455.435Z" fill="black"/>
<path fill-rule="evenodd" clip-rule="evenodd" d="M0 574H1007V1330H0V574ZM555.718 826.73C555.702 826.73 555.687 826.728 555.671 826.723C555.648 826.715 555.626 826.702 555.608 826.684C555.579 826.655 555.562 826.615 555.562 826.574C553.304 822.736 550.07 819.561 546.187 817.372L408.687 740.166C404.962 738.09 400.766 737 396.5 737C392.233 737 388.038 738.09 384.312 740.166L246.813 817.372C242.93 819.561 239.696 822.736 237.438 826.574C237.438 826.615 237.421 826.655 237.392 826.684C237.363 826.714 237.323 826.73 237.281 826.73V827.042C235.121 830.676 233.987 834.826 234 839.052V992.839C234.008 997.285 235.198 1001.65 237.449 1005.49C239.7 1009.32 242.932 1012.49 246.813 1014.67L384.312 1091.88C387.774 1093.77 391.623 1094.83 395.562 1095H397.75C401.586 1094.81 405.328 1093.74 408.687 1091.88L449 1069.25V1115.29C449 1122.11 451.708 1128.65 456.529 1133.47C461.349 1138.29 467.887 1141 474.704 1141H546.515C549.311 1141.02 552.087 1140.53 554.708 1139.55L555.993 1139.23C559.25 1137.92 562.202 1135.95 564.669 1133.45L699.133 998.935L704.595 1021.27L645.476 1080.41C643.062 1082.85 641.709 1086.14 641.709 1089.57C641.709 1093 643.062 1096.3 645.476 1098.73C647.932 1101.11 651.216 1102.44 654.633 1102.44C658.05 1102.44 661.333 1101.11 663.79 1098.73L728.05 1034.45C729.557 1032.84 730.651 1030.89 731.239 1028.76C731.826 1026.63 731.89 1024.39 731.424 1022.24L720.339 977.883L757.449 940.599C759.845 938.221 761.745 935.392 763.041 932.275C764.337 929.158 765.003 925.815 765 922.439C765.003 919.063 764.337 915.72 763.041 912.603C761.745 909.486 759.845 906.657 757.449 904.279L685.639 832.444C680.799 827.674 674.279 825 667.485 825C660.691 825 654.171 827.674 649.331 832.444L559 922.807V839.052C559.023 834.726 557.89 830.473 555.718 826.73ZM534 947.815V853.089L410.406 923.276L409.156 1063.03L449.166 1040.53C449.364 1038.74 449.738 1036.98 450.285 1035.25L450.767 1033.97C452.082 1030.71 454.05 1027.76 456.551 1025.29L534 947.815ZM397.906 901.596L272.125 831.721L396.5 761.846L521.031 831.721L397.906 901.596ZM634.23 883.87L706.041 955.705L739.296 922.439L667.485 850.603L634.23 883.87Z" fill="#20252B"/>
<path fill-rule="evenodd" clip-rule="evenodd" d="M559 922.807L534 947.815V992.839L449.166 1040.53C449.058 1041.5 449.003 1042.47 449 1043.45V1069.25L546.187 1014.67C550.068 1012.49 553.299 1009.32 555.55 1005.49C557.801 1001.65 558.992 997.285 559 992.839V922.807Z" fill="#20252B"/>
</g>
<defs>
<radialGradient id="paint0_radial_1_106" cx="0" cy="0" r="1" gradientUnits="userSpaceOnUse" gradientTransform="translate(-106 489.147) rotate(2.25551) scale(1509.17 523.573)">
<stop stop-color="#EF98DC" stop-opacity="0.19"/>
<stop offset="1" stop-color="white" stop-opacity="0"/>
</radialGradient>
<radialGradient id="paint1_radial_1_106" cx="0" cy="0" r="1" gradientUnits="userSpaceOnUse" gradientTransform="translate(1007 44.2595) rotate(162.272) scale(1418.88 664.213)">
<stop stop-color="#CC7AFF"/>
<stop offset="1" stop-color="white" stop-opacity="0"/>
</radialGradient>
<radialGradient id="paint2_radial_1_106" cx="0" cy="0" r="1" gradientUnits="userSpaceOnUse" gradientTransform="translate(137.263 1097.51) rotate(3.10895) scale(865.341 413.42)">
<stop stop-color="#EF98DC" stop-opacity="0.43"/>
<stop offset="1" stop-color="white" stop-opacity="0"/>
</radialGradient>
<radialGradient id="paint3_radial_1_106" cx="0" cy="0" r="1" gradientUnits="userSpaceOnUse" gradientTransform="translate(775 745.972) rotate(156.21) scale(846.305 504.184)">
<stop stop-color="#CC7AFF"/>
<stop offset="1" stop-color="white" stop-opacity="0"/>
</radialGradient>
<clipPath id="clip0_1_106">
<rect width="1000" height="1330" fill="white"/>
</clipPath>
</defs>
</svg>
